#N canvas 298 22 864 700 10;
#X obj 246 330 bng 15 250 50 0 empty empty empty 0 -6 0 8 -262144 -1
-1;
#X obj 205 302 TuioClient;
#X obj 206 376 route addObject removeObject updateObject;
#X obj 366 416 unpack \$1 \$2 \$3 \$4 \$5;
#X msg 205 415 \; pd dsp 1;
#X msg 285 415 \; pd dsp 0;
#X obj 148 200 gemwin;
#X msg 88 17 create;
#X msg 144 16 destroy;
#X msg 179 89 lighting 0;
#X msg 170 64 lighting 1;
#X obj 201 146 tgl 15 0 empty empty empty 17 7 0 10 -262144 -1 -1 0
1;
#X text 226 145 start/stop rendering;
#X msg 160 42 dimen 1000 700;
#X msg -221 14 draw line;
#X msg -221 34 draw fill;
#X msg -221 53 draw point;
#X obj -221 75 s \$0-s3d;
#X obj -214 298 gemhead;
#X obj -213 329 world_light;
#X msg 190 114 title Platine_2.0;
#X obj 442 474 pack f f;
#N canvas 302 22 645 530 TranslateMarqueur 0;
#X obj 234 237 +;
#X floatatom 234 268 5 0 0 0 - - -;
#X floatatom 351 272 5 0 0 0 - - -;
#X obj 352 238 -;
#X floatatom 273 207 5 0 0 0 - - -;
#X msg 288 150 2;
#X obj 273 179 *;
#X msg 398 143 2;
#X obj 384 171 *;
#X obj 241 21 inlet;
#X obj 275 58 unpack f f;
#X obj 286 328 pack f f;
#X obj 286 400 outlet;
#X floatatom 368 125 5 0 0 0 - - -;
#X floatatom 273 124 5 0 0 0 - - -;
#X floatatom 384 208 5 0 0 0 - - -;
#X obj 301 91 t b f;
#X msg 235 207 -5.3;
#X msg 352 187 3.8;
#X text 380 103 Y;
#X text 250 121 X;
#X connect 0 0 1 0;
#X connect 1 0 11 0;
#X connect 2 0 11 1;
#X connect 3 0 2 0;
#X connect 4 0 0 1;
#X connect 5 0 6 1;
#X connect 6 0 4 0;
#X connect 7 0 8 1;
#X connect 8 0 15 0;
#X connect 9 0 10 0;
#X connect 10 0 14 0;
#X connect 10 0 16 0;
#X connect 10 1 13 0;
#X connect 10 1 16 0;
#X connect 11 0 12 0;
#X connect 13 0 8 0;
#X connect 14 0 6 0;
#X connect 15 0 3 1;
#X connect 16 0 5 0;
#X connect 16 0 17 0;
#X connect 16 1 18 0;
#X connect 16 1 7 0;
#X connect 17 0 0 0;
#X connect 18 0 3 0;
#X restore 384 1285 pd TranslateMarqueur;
#X obj 429 1524 unpack f f;
#X obj -33 798 == 0;
#X obj -66 847 spigot;
#X obj -66 878 bng 15 250 50 0 empty empty empty 17 7 0 10 -262144
-1 -1;
#X obj -66 910 tgl 15 0 empty empty empty 17 7 0 10 -262144 -1 -1 0
1;
#X obj -64 1086 square;
#X obj -65 1015 translateXYZ;
#X obj -65 1046 scaleXYZ 0.05 0.05 0.05;
#X obj -66 983 color;
#X obj -66 951 gemhead 53;
#X msg 5 952 1 0 0;
#X floatatom 388 447 5 0 0 0 - - -;
#X floatatom 411 1640 5 0 0 0 - - -;
#X floatatom 495 1639 5 0 0 0 - - -;
#X floatatom 422 448 5 0 0 0 - - -;
#X floatatom 458 449 5 0 0 0 - - -;
#X obj -107 981 bng 15 250 50 0 empty empty empty 17 7 0 10 -262144
-1 -1;
#X text 410 1665 Fin du programme;
#X obj 227 842 spigot;
#X obj 227 873 bng 15 250 50 0 empty empty empty 17 7 0 10 -262144
-1 -1;
#X obj 227 905 tgl 15 0 empty empty empty 17 7 0 10 -262144 -1 -1 0
1;
#X obj 229 1081 square;
#X obj 228 1010 translateXYZ;
#X obj 228 1041 scaleXYZ 0.05 0.05 0.05;
#X obj 227 978 color;
#X obj 227 946 gemhead 53;
#X obj 186 976 bng 15 250 50 0 empty empty empty 17 7 0 10 -262144
-1 -1;
#X obj 260 793 == 6;
#X msg 298 947 0 1 0;
#X obj 564 847 spigot;
#X obj 564 878 bng 15 250 50 0 empty empty empty 17 7 0 10 -262144
-1 -1;
#X obj 564 910 tgl 15 0 empty empty empty 17 7 0 10 -262144 -1 -1 0
1;
#X obj 566 1086 square;
#X obj 565 1015 translateXYZ;
#X obj 565 1046 scaleXYZ 0.05 0.05 0.05;
#X obj 564 983 color;
#X obj 564 951 gemhead 53;
#X obj 523 981 bng 15 250 50 0 empty empty empty 17 7 0 10 -262144
-1 -1;
#X obj 889 856 spigot;
#X obj 889 887 bng 15 250 50 0 empty empty empty 17 7 0 10 -262144
-1 -1;
#X obj 889 919 tgl 15 0 empty empty empty 17 7 0 10 -262144 -1 -1 0
1;
#X obj 891 1095 square;
#X obj 890 1024 translateXYZ;
#X obj 890 1055 scaleXYZ 0.05 0.05 0.05;
#X obj 889 992 color;
#X obj 889 960 gemhead 53;
#X obj 848 990 bng 15 250 50 0 empty empty empty 17 7 0 10 -262144
-1 -1;
#X obj 597 798 == 7;
#X msg 635 952 0 0 1;
#X msg 960 961 1 1 0;
#X obj 922 807 == 8;
#N canvas 0 22 1280 700 fiducialDraw 1;
#X obj 39 170 spigot;
#X floatatom 40 140 5 0 0 0 - - -;
#X floatatom 261 93 5 0 0 0 - - -;
#X obj 179 177 spigot;
#X floatatom 178 149 5 0 0 0 - - -;
#X obj 340 175 spigot;
#X floatatom 339 146 5 0 0 0 - - -;
#X obj 505 185 spigot;
#X floatatom 504 151 5 0 0 0 - - -;
#X floatatom 461 181 5 0 0 0 - - -;
#X obj 664 176 spigot;
#X floatatom 666 140 5 0 0 0 - - -;
#X floatatom 620 168 5 0 0 0 - - -;
#N canvas 673 71 450 300 gamelle 0;
#X obj 94 164 readsf~ 2 44100;
#X obj 93 205 dac~;
#X obj 141 108 bng 15 250 50 0 empty empty empty 17 7 0 10 -262144
-1 -1;
#X obj 142 136 tgl 15 0 empty empty empty 17 7 0 10 -262144 -1 -1 0
1;
#X msg 95 76 open sound/gamelle.wav;
#X text 85 78 comment;
#X obj 89 23 inlet;
#X connect 0 0 1 0;
#X connect 0 1 1 1;
#X connect 2 0 3 0;
#X connect 3 0 0 0;
#X connect 4 0 0 0;
#X connect 4 0 2 0;
#X connect 6 0 4 0;
#X restore 36 207 pd gamelle;
#X obj 40 117 == 0;
#N canvas 634 98 450 300 scratch 0;
#X obj 154 181 readsf~ 2 44100;
#X obj 152 224 dac~;
#X obj 180 127 bng 15 250 50 0 empty empty empty 17 7 0 10 -262144
-1 -1;
#X obj 182 154 tgl 15 0 empty empty empty 17 7 0 10 -262144 -1 -1 0
1;
#X msg 150 97 open sound/scratch.wav;
#X obj 221 134 delay 50;
#X obj 169 47 inlet;
#X connect 0 0 1 0;
#X connect 0 1 1 1;
#X connect 2 0 5 0;
#X connect 3 0 0 0;
#X connect 4 0 0 0;
#X connect 4 0 2 0;
#X connect 5 0 3 0;
#X connect 6 0 4 0;
#X restore 186 228 pd scratch;
#N canvas 0 22 450 300 scratch2 0;
#X obj 148 195 readsf~ 2 44100;
#X obj 143 241 dac~;
#X obj 211 147 bng 15 250 50 0 empty empty empty 17 7 0 10 -262144
-1 -1;
#X obj 212 175 tgl 15 0 empty empty empty 17 7 0 10 -262144 -1 -1 0
1;
#X msg 148 114 open sound/scratch2.wav;
#X obj 146 59 inlet;
#X connect 0 0 1 0;
#X connect 0 1 1 1;
#X connect 2 0 3 0;
#X connect 3 0 0 0;
#X connect 4 0 0 0;
#X connect 4 0 2 0;
#X connect 5 0 4 0;
#X restore 343 229 pd scratch2;
#N canvas 0 22 450 300 button 0;
#X obj 132 198 readsf~ 2 44100;
#X obj 125 244 dac~;
#X obj 178 149 bng 15 250 50 0 empty empty empty 17 7 0 10 -262144
-1 -1;
#X obj 178 173 tgl 15 0 empty empty empty 17 7 0 10 -262144 -1 -1 0
1;
#X msg 128 122 open sound/button.wav;
#X obj 132 59 inlet;
#X connect 0 0 1 0;
#X connect 0 1 1 1;
#X connect 2 0 3 0;
#X connect 3 0 0 0;
#X connect 4 0 0 0;
#X connect 4 0 2 0;
#X connect 5 0 4 0;
#X restore 505 232 pd button;
#N canvas 0 22 450 300 action 0;
#X obj 123 212 readsf~ 2 44100;
#X obj 124 247 dac~;
#X obj 173 162 bng 15 250 50 0 empty empty empty 17 7 0 10 -262144
-1 -1;
#X obj 174 187 tgl 15 0 empty empty empty 17 7 0 10 -262144 -1 -1 0
1;
#X msg 116 117 open sound/action.wav;
#X obj 119 45 inlet;
#X connect 0 0 1 0;
#X connect 0 1 1 1;
#X connect 2 0 3 0;
#X connect 3 0 0 0;
#X connect 4 0 0 0;
#X connect 4 0 2 0;
#X connect 5 0 4 0;
#X restore 663 234 pd action;
#X obj -59 347 gemhead;
#X floatatom 643 820 5 0 0 1 size - -;
#X floatatom 645 866 3 0 0 2 segments - -;
#X obj 641 779 r \$0-s3d;
#X obj 559 692 scaleXYZ 0.5 0.5 0.5;
#X msg 126 469 1 0 0;
#X msg 294 470 0 0 1;
#X obj 175 122 == 6;
#X obj 339 118 == 7;
#X obj 503 120 == 8;
#X obj 664 110 == 9;
#X obj 92 538 color;
#X obj 592 360 vsl 15 128 0.3 2 0 0 empty empty empty 0 -9 0 10 -258113
-1 -1 0 1;
#X msg 598 250 0.9;
#X obj 640 357 vsl 15 128 0.3 2 0 0 empty empty empty 0 -9 0 10 -4160
-1 -1 0 1;
#X obj 540 360 vsl 15 128 0.3 2 0 0 empty empty empty 0 -9 0 10 -4034
-1 -1 0 1;
#X msg 551 284 0.9;
#X msg 494 290 0.9;
#X msg 415 450 0.5;
#X obj 250 10 inlet;
#X obj 185 598 translateXYZ 1 1 1;
#X msg 173 469 0 1 1;
#X msg 218 469 0.5 0 0.3;
#N canvas 0 22 450 300 metro 0;
#X floatatom 170 221 5 0 0 0 - - -;
#X floatatom 222 218 5 0 0 0 - - -;
#X obj 152 181 f;
#X obj 154 117 tgl 15 0 empty empty empty 17 7 0 10 -262144 -1 -1 0
1;
#X floatatom 125 219 5 0 0 0 - - -;
#X obj 153 152 metro 100;
#X obj 198 178 + 4;
#X obj 154 19 inlet;
#X obj 63 265 rotateXYZ;
#X obj 147 290 outlet;
#X obj 196 76 1;
#X connect 0 0 8 2;
#X connect 1 0 8 3;
#X connect 2 0 4 0;
#X connect 2 0 0 0;
#X connect 2 0 1 0;
#X connect 2 0 6 0;
#X connect 3 0 5 0;
#X connect 4 0 8 1;
#X connect 5 0 2 0;
#X connect 6 0 2 1;
#X connect 7 0 8 0;
#X connect 8 0 9 0;
#X connect 10 0 3 0;
#X restore -59 395 pd metro;
#X obj 560 779 pix_texture;
#X obj 560 746 pix_image bois.JPG;
#X msg 76 469 1 1 1;
#X obj 559 923 sphere3d;
#X text 742 184 en fonction du numero du marqueur on joue un son different
;
#X text 729 359 permet de faire varier la sphere que bouge et la remet
a sa forme normale;
#X text -148 318 permet de faire bouger la sphere de maniere constante
;
#X text 541 997 fin sous-programme;
#X text 708 779 permet de dessiner fill-line-point;
#X text 690 866 permet de modifier resolution de la sphere;
#X connect 0 0 13 0;
#X connect 0 0 45 0;
#X connect 1 0 0 1;
#X connect 1 0 0 0;
#X connect 2 0 14 0;
#X connect 2 0 26 0;
#X connect 2 0 27 0;
#X connect 2 0 28 0;
#X connect 2 0 29 0;
#X connect 3 0 15 0;
#X connect 3 0 41 0;
#X connect 4 0 3 1;
#X connect 4 0 3 0;
#X connect 5 0 16 0;
#X connect 5 0 25 0;
#X connect 5 0 36 0;
#X connect 6 0 5 1;
#X connect 6 0 5 0;
#X connect 7 0 9 0;
#X connect 7 0 17 0;
#X connect 7 0 40 0;
#X connect 7 0 35 0;
#X connect 8 0 7 1;
#X connect 8 0 7 0;
#X connect 10 0 12 0;
#X connect 10 0 18 0;
#X connect 10 0 24 0;
#X connect 10 0 32 0;
#X connect 11 0 10 1;
#X connect 11 0 10 0;
#X connect 14 0 1 0;
#X connect 19 0 42 0;
#X connect 20 0 46 1;
#X connect 21 0 46 2;
#X connect 22 0 46 0;
#X connect 23 0 37 0;
#X connect 23 0 44 0;
#X connect 24 0 30 1;
#X connect 25 0 30 1;
#X connect 26 0 4 0;
#X connect 27 0 6 0;
#X connect 28 0 8 0;
#X connect 29 0 11 0;
#X connect 30 0 39 0;
#X connect 31 0 23 2;
#X connect 32 0 33 0;
#X connect 33 0 23 3;
#X connect 34 0 23 1;
#X connect 35 0 31 0;
#X connect 36 0 34 0;
#X connect 37 0 34 0;
#X connect 37 0 31 0;
#X connect 37 0 33 0;
#X connect 38 0 2 0;
#X connect 39 0 23 0;
#X connect 40 0 30 1;
#X connect 41 0 30 1;
#X connect 42 0 30 0;
#X connect 43 0 46 0;
#X connect 44 0 43 0;
#X connect 45 0 30 1;
#X restore -29 493 pd fiducialDraw;
#X text -135 36 caracteristique de dessin;
#N canvas 0 22 450 300 dessinPlatine 0;
#X obj -130 56 gemhead 50;
#X obj -128 167 pix_image platine.jpg;
#X obj -127 214 pix_texture;
#X obj -128 128 scaleXYZ 1.7 1.2 1;
#X obj -128 87 translateXYZ -4 2.8 0;
#X obj -126 256 square;
#X connect 0 0 4 0;
#X connect 1 0 2 0;
#X connect 2 0 5 0;
#X connect 3 0 1 0;
#X connect 4 0 3 0;
#X restore -215 192 pd dessinPlatine;
#N canvas 0 22 450 300 dessinVynil 0;
#X obj 22 22 gemhead 51;
#X obj 22 162 pix_image vynil.jpg;
#X obj 23 188 pix_texture;
#X obj 20 106 scaleXYZ 0.9 0.9 0.9;
#X obj 30 232 circle;
#X obj 23 54 translateXYZ -4.3 2.8 0;
#X connect 0 0 5 0;
#X connect 1 0 2 0;
#X connect 2 0 4 0;
#X connect 3 0 1 0;
#X connect 5 0 3 0;
#X restore -214 217 pd dessinVynil;
#X text -214 152 permet de dessiner la ou on place les marqueurs;
#X text -159 290 pour avoir un rendu OpenGL plus realiste;
#X text 199 200 permet d'ouvrir la fenetre de visualisation;
#X text -166 480 pour generer les sons et modifier la sphere qui tourne
;
#X text 504 464 pour traiter x et y en meme temps;
#X text 381 1312 permet de gerer le placement des marqueurs sur la
fausse platine;
#X text -171 1260 FERIEL \, je pense que c'est par ici qu'il va falloir
appliquer l'homography ===========================================================
;
#X text 183 1286 ============================>;
#X text 361 852 on regarde id marqueur on desine un carre d'une certaine
couleur sur la fausse platine.;
#X connect 0 0 1 0;
#X connect 1 0 2 0;
#X connect 2 0 4 0;
#X connect 2 1 5 0;
#X connect 2 2 3 0;
#X connect 3 1 34 0;
#X connect 3 2 37 0;
#X connect 3 3 38 0;
#X connect 7 0 6 0;
#X connect 8 0 6 0;
#X connect 9 0 6 0;
#X connect 10 0 6 0;
#X connect 11 0 6 0;
#X connect 13 0 6 0;
#X connect 14 0 17 0;
#X connect 15 0 17 0;
#X connect 16 0 17 0;
#X connect 18 0 19 0;
#X connect 20 0 6 0;
#X connect 21 0 25 0;
#X connect 21 0 41 0;
#X connect 21 0 52 0;
#X connect 21 0 61 0;
#X connect 22 0 23 0;
#X connect 23 0 35 0;
#X connect 23 1 36 0;
#X connect 24 0 25 1;
#X connect 25 0 26 0;
#X connect 25 0 22 0;
#X connect 26 0 27 0;
#X connect 26 0 33 0;
#X connect 27 0 32 0;
#X connect 29 0 30 0;
#X connect 30 0 28 0;
#X connect 30 0 39 0;
#X connect 31 0 29 0;
#X connect 32 0 31 0;
#X connect 33 0 31 1;
#X connect 34 0 24 0;
#X connect 34 0 50 0;
#X connect 34 0 70 0;
#X connect 34 0 73 0;
#X connect 34 0 74 0;
#X connect 35 0 29 1;
#X connect 35 0 45 1;
#X connect 35 0 56 1;
#X connect 35 0 65 1;
#X connect 36 0 29 2;
#X connect 36 0 45 2;
#X connect 36 0 56 2;
#X connect 36 0 65 2;
#X connect 37 0 21 0;
#X connect 38 0 21 1;
#X connect 39 0 27 0;
#X connect 41 0 42 0;
#X connect 41 0 22 0;
#X connect 42 0 43 0;
#X connect 42 0 51 0;
#X connect 43 0 48 0;
#X connect 45 0 46 0;
#X connect 46 0 44 0;
#X connect 46 0 49 0;
#X connect 47 0 45 0;
#X connect 48 0 47 0;
#X connect 49 0 43 0;
#X connect 50 0 41 1;
#X connect 51 0 47 1;
#X connect 52 0 53 0;
#X connect 52 0 22 0;
#X connect 53 0 54 0;
#X connect 53 0 71 0;
#X connect 54 0 59 0;
#X connect 56 0 57 0;
#X connect 57 0 55 0;
#X connect 57 0 60 0;
#X connect 58 0 56 0;
#X connect 59 0 58 0;
#X connect 60 0 54 0;
#X connect 61 0 62 0;
#X connect 61 0 22 0;
#X connect 62 0 63 0;
#X connect 62 0 72 0;
#X connect 63 0 68 0;
#X connect 65 0 66 0;
#X connect 66 0 64 0;
#X connect 66 0 69 0;
#X connect 67 0 65 0;
#X connect 68 0 67 0;
#X connect 69 0 63 0;
#X connect 70 0 52 1;
#X connect 71 0 58 1;
#X connect 72 0 67 1;
#X connect 73 0 61 1;
