#N canvas 31 22 1249 685 10;
#X declare -lib iemmatrix;
#X declare -lib iemmatrix;
#X declare -lib iemmatrix;
#X declare -lib iemmatrix;
#X declare -lib iemmatrix;
#X obj 246 330 bng 15 250 50 0 empty empty empty 0 -6 0 8 -262144 -1
-1;
#X obj 205 302 TuioClient;
#X obj 206 376 route addObject removeObject updateObject;
#X obj 366 416 unpack \$1 \$2 \$3 \$4 \$5;
#X msg 205 415 \; pd dsp 1;
#X msg 285 415 \; pd dsp 0;
#X obj 148 200 gemwin;
#X msg 88 17 create;
#X msg 144 16 destroy;
#X msg 179 89 lighting 0;
#X msg 170 64 lighting 1;
#X obj 201 146 tgl 15 0 empty empty empty 17 7 0 10 -262144 -1 -1 1
1;
#X text 226 145 start/stop rendering;
#X msg 160 42 dimen 1000 700;
#X msg -221 14 draw line;
#X msg -221 34 draw fill;
#X msg -221 53 draw point;
#X obj -221 75 s \$0-s3d;
#X obj -214 298 gemhead;
#X obj -213 329 world_light;
#X msg 190 114 title Platine_2.0;
#X obj 442 474 pack f f;
#N canvas 0 22 1349 669 TranslateMarqueur 0;
#X obj 1330 32 inlet 4points;
#X obj 1427 81 unpack f f f f f f f f;
#X obj 1417 159 t b f;
#X obj 1465 187 t b f;
#X obj 1492 220 t b f;
#X obj 1384 257 pack f f f f f f f f;
#X obj 254 55 inlet coordXY;
#X obj 447 795 outlet Mapped;
#X obj 766 799 outlet error;
#X text 621 209 MATRIX A;
#X obj 649 273 t a a;
#X text 788 245 MATRIX B;
#X obj 676 210 t a a b;
#X msg 493 450 \$3 \$4 \$5;
#X msg 574 510 \$6 \$7 \$8;
#X msg 742 495 \$9 \$10;
#X obj 445 357 t a a a;
#X obj 427 619 *;
#X obj 487 621 *;
#X obj 396 503 expr ($f3*$f1)+($f4*$f2)+$f5;
#X obj 492 558 expr ($f3*$f1)+($f4*$f2)+$f5;
#X obj 699 557 expr 1/(($f1*$f3)+($f2*$f4)+1);
#X obj 436 641 pack f f;
#N canvas 142 22 844 578 theory/explanations/sources 0;
#X text 106 332 l=(A A) A B;
#X text 130 325 T -1 T;
#X text 47 157 l=;
#X text 68 116 a;
#X text 67 127 b;
#X text 67 139 c;
#X text 68 152 d;
#X text 67 163 e;
#X text 69 174 f;
#X text 68 183 g;
#X text 70 195 h;
#X text 143 158 B=;
#X text 161 119 X1;
#X text 161 132 Y1;
#X text 162 143 X2;
#X text 162 156 Y2;
#X text 162 170 X3;
#X text 163 183 Y3;
#X text 164 194 X4;
#X text 164 203 Y4;
#X text 122 56 Al=B;
#X text 400 260 B=;
#X text 471 245 1;
#X text 472 283 1;
#X text 472 296 1;
#X text 475 307 1;
#X text 652 258 A=;
#X text 417 216 X1;
#X text 417 229 Y1;
#X text 418 240 X2;
#X text 418 253 Y2;
#X text 418 267 X3;
#X text 419 280 Y3;
#X text 417 293 X4;
#X text 418 309 Y4;
#X text 679 237 x2 y2 1 0 0 0 -x2 -y2;
#X text 678 284 0 0 0 x3 y3 1 -x3 -y3;
#X text 679 297 x4 y4 1 0 0 0 -x4 -y4;
#X text 679 313 0 0 0 x4 y4 1 -x4 -y4;
#X text 466 218 -1;
#X text 468 233 -1;
#X text 468 256 -1;
#X text 466 266 -1;
#X text 678 204 x1 y1 1 0 0 0 x1 y1;
#X text 679 221 0 0 0 x1 y1 1 x1 y1;
#X text 678 253 0 0 0 x2 y2 1 x2 y2;
#X text 678 268 x3 y3 1 0 0 0 x3 y3;
#X text 21 -27 Transposition from http://alumni.media.mit.edu/~cwren/interpolator/
;
#X text 43 29 We have to find the vector l that meets the equation
:;
#X text 38 90 where;
#X text 43 235 B contains the coords of 4 reference points in new system
;
#X text 41 257 If we choose 4 points (-1 \, -1) (1 \, -1) (-1 \, 1)
(1 \, 1) \, we get;
#X text 445 261 =;
#X text 233 148 (Matrix A is as defined in http://alumni.media.mit.edu/~cwren/interpolator/)
;
#X text 514 258 and we can simplify A:;
#X text 451 -6 x y : coords given by input device (example : wiimote)
;
#X text 455 18 X Y : coords mapped in new system;
#X text 44 383 When l is found \, we can easily compute new coords
\, for any point :;
#X text 60 425 ax+by+c;
#X text 45 430 X=________;
#X text 60 443 gx+hy+1;
#X text 190 443 gx+hy+1;
#X text 175 430 Y=________;
#X text 190 425 dx+ey+f;
#X restore 420 151 pd theory/explanations/sources;
#X text 409 523 ax+by+c;
#X text 504 575 dx+ey+f;
#X text 720 577 1/(gx+hy+1);
#X text 414 632 X;
#X text 493 637 Y;
#X text 690 437 l=(A A) A B;
#X text 714 430 T -1 T;
#X obj 1078 90 unpack f f f f f f f f;
#X obj 1011 249 pack f f f f f f f f f f f f f f f f;
#X obj 1229 192 * -1;
#X obj 1201 192 * -1;
#X obj 1162 189 * -1;
#X obj 1134 189 * -1;
#X obj 1232 150 * -1;
#X obj 1196 150 * -1;
#X obj 1157 147 * -1;
#X obj 1129 147 * -1;
#X msg 682 135 matrix 8 8 \$1 \$2 1 0 0 0 \$1 \$2 0 0 0 \$1 \$2 1 \$1
\$2 \$3 \$4 1 0 0 0 \$11 \$12 0 0 0 \$3 \$4 1 \$3 \$4 \$5 \$6 1 0 0
0 \$5 \$6 0 0 0 \$5 \$6 1 \$13 \$14 \$7 \$8 1 0 0 0 \$15 \$16 0 0 0
\$7 \$8 1 \$15 \$16;
#X obj 491 470 unpack f f f;
#X obj 570 537 unpack f f f;
#X obj 795 519 unpack f f;
#X msg 789 268 matrix 8 1 -1 -1 1 -1 -1 1 1 1;
#X floatatom 1291 334 5 0 0 0 - - -;
#X text 1268 331 X;
#X floatatom 1327 334 5 0 0 0 - - -;
#X floatatom 1375 336 5 0 0 0 - - -;
#X floatatom 1409 336 5 0 0 0 - - -;
#X floatatom 1458 337 5 0 0 0 - - -;
#X floatatom 1493 336 5 0 0 0 - - -;
#X floatatom 1544 336 5 0 0 0 - - -;
#X floatatom 1581 337 5 0 0 0 - - -;
#X floatatom 488 710 5 0 0 0 - - -;
#X text 465 707 X;
#X floatatom 524 710 5 0 0 0 - - -;
#X obj 424 114 import iemmatrix;
#X obj 621 189 iemmatrix/matrix;
#X obj 636 242 iemmatrix/mtx_transpose;
#X obj 648 297 iemmatrix/mtx_mul;
#X obj 642 323 iemmatrix/mtx_pinverse;
#X obj 633 361 iemmatrix/mtx_mul;
#X obj 633 399 iemmatrix/mtx_mul;
#X connect 0 0 1 0;
#X connect 1 0 5 0;
#X connect 1 0 46 0;
#X connect 1 1 5 1;
#X connect 1 1 48 0;
#X connect 1 2 2 0;
#X connect 1 2 49 0;
#X connect 1 3 5 3;
#X connect 1 3 50 0;
#X connect 1 4 3 0;
#X connect 1 4 51 0;
#X connect 1 5 5 5;
#X connect 1 5 52 0;
#X connect 1 6 4 0;
#X connect 1 6 53 0;
#X connect 1 7 5 7;
#X connect 1 7 54 0;
#X connect 2 0 5 0;
#X connect 2 1 5 2;
#X connect 3 0 5 0;
#X connect 3 1 5 4;
#X connect 4 0 5 0;
#X connect 4 1 5 6;
#X connect 5 0 31 0;
#X connect 6 0 16 0;
#X connect 10 0 61 0;
#X connect 10 1 63 1;
#X connect 12 0 60 0;
#X connect 12 1 61 1;
#X connect 12 2 45 0;
#X connect 13 0 42 0;
#X connect 14 0 43 0;
#X connect 15 0 44 0;
#X connect 16 0 19 0;
#X connect 16 1 20 0;
#X connect 16 2 21 0;
#X connect 17 0 22 0;
#X connect 17 0 55 0;
#X connect 18 0 22 1;
#X connect 18 0 57 0;
#X connect 19 0 17 0;
#X connect 20 0 18 0;
#X connect 21 0 17 1;
#X connect 21 0 18 1;
#X connect 22 0 7 0;
#X connect 31 0 40 0;
#X connect 31 0 32 0;
#X connect 31 1 39 0;
#X connect 31 1 32 1;
#X connect 31 2 38 0;
#X connect 31 2 32 2;
#X connect 31 3 37 0;
#X connect 31 3 32 3;
#X connect 31 4 36 0;
#X connect 31 4 32 4;
#X connect 31 5 35 0;
#X connect 31 5 32 5;
#X connect 31 6 34 0;
#X connect 31 6 32 6;
#X connect 31 7 33 0;
#X connect 31 7 32 7;
#X connect 32 0 41 0;
#X connect 33 0 32 15;
#X connect 34 0 32 14;
#X connect 35 0 32 13;
#X connect 36 0 32 12;
#X connect 37 0 32 11;
#X connect 38 0 32 10;
#X connect 39 0 32 9;
#X connect 40 0 32 8;
#X connect 41 0 59 0;
#X connect 42 0 19 2;
#X connect 42 1 19 3;
#X connect 42 2 19 4;
#X connect 43 0 20 2;
#X connect 43 1 20 3;
#X connect 43 2 20 4;
#X connect 44 0 21 2;
#X connect 44 1 21 3;
#X connect 45 0 64 1;
#X connect 59 0 12 0;
#X connect 60 0 10 0;
#X connect 61 0 62 0;
#X connect 62 0 63 0;
#X connect 62 1 8 0;
#X connect 63 0 64 0;
#X connect 64 0 13 0;
#X connect 64 0 14 0;
#X connect 64 0 15 0;
#X restore 382 1138 pd TranslateMarqueur;
#X obj 405 1164 unpack f f;
#X obj -66 847 spigot;
#X obj -66 878 bng 15 250 50 0 empty empty empty 17 7 0 10 -262144
-1 -1;
#X obj -66 910 tgl 15 0 empty empty empty 17 7 0 10 -262144 -1 -1 0
1;
#X obj -64 1086 square;
#X obj -65 1015 translateXYZ;
#X obj -65 1046 scaleXYZ 0.05 0.05 0.05;
#X obj -66 983 color;
#X obj -66 951 gemhead 53;
#X msg 5 952 1 0 0;
#X floatatom 388 447 5 0 0 0 - - -;
#X floatatom 402 1297 5 0 0 0 - - -;
#X floatatom 453 1294 5 0 0 0 - - -;
#X floatatom 422 448 5 0 0 0 - - -;
#X floatatom 458 449 5 0 0 0 - - -;
#X obj -107 981 bng 15 250 50 0 empty empty empty 17 7 0 10 -262144
-1 -1;
#X text 424 1902 Fin du programme;
#X obj 227 833 spigot;
#X obj 227 873 bng 15 250 50 0 empty empty empty 17 7 0 10 -262144
-1 -1;
#X obj 227 905 tgl 15 0 empty empty empty 17 7 0 10 -262144 -1 -1 0
1;
#X obj 229 1081 square;
#X obj 228 1010 translateXYZ;
#X obj 228 1041 scaleXYZ 0.05 0.05 0.05;
#X obj 227 978 color;
#X obj 227 946 gemhead 53;
#X obj 186 976 bng 15 250 50 0 empty empty empty 17 7 0 10 -262144
-1 -1;
#X msg 298 947 0 1 0;
#X obj 564 847 spigot;
#X obj 564 878 bng 15 250 50 0 empty empty empty 17 7 0 10 -262144
-1 -1;
#X obj 564 910 tgl 15 0 empty empty empty 17 7 0 10 -262144 -1 -1 0
1;
#X obj 566 1086 square;
#X obj 565 1015 translateXYZ;
#X obj 565 1046 scaleXYZ 0.05 0.05 0.05;
#X obj 564 983 color;
#X obj 564 951 gemhead 53;
#X obj 523 981 bng 15 250 50 0 empty empty empty 17 7 0 10 -262144
-1 -1;
#X obj 889 856 spigot;
#X obj 889 887 bng 15 250 50 0 empty empty empty 17 7 0 10 -262144
-1 -1;
#X obj 889 919 tgl 15 0 empty empty empty 17 7 0 10 -262144 -1 -1 0
1;
#X obj 891 1095 square;
#X obj 890 1024 translateXYZ;
#X obj 890 1055 scaleXYZ 0.05 0.05 0.05;
#X obj 889 992 color;
#X obj 889 960 gemhead 53;
#X obj 848 990 bng 15 250 50 0 empty empty empty 17 7 0 10 -262144
-1 -1;
#X msg 635 952 0 0 1;
#X msg 960 961 1 1 0;
#N canvas 0 22 1245 700 fiducialDraw 1;
#N canvas 673 71 450 300 gamelle 0;
#X obj 94 164 readsf~ 2 44100;
#X obj 93 205 dac~;
#X obj 141 108 bng 15 250 50 0 empty empty empty 17 7 0 10 -262144
-1 -1;
#X obj 142 136 tgl 15 0 empty empty empty 17 7 0 10 -262144 -1 -1 0
1;
#X msg 95 76 open sound/gamelle.wav;
#X text 85 78 comment;
#X obj 89 23 inlet;
#X connect 0 0 1 0;
#X connect 0 1 1 1;
#X connect 2 0 3 0;
#X connect 3 0 0 0;
#X connect 4 0 0 0;
#X connect 4 0 2 0;
#X connect 6 0 4 0;
#X restore -1158 853 pd gamelle;
#N canvas 634 98 450 300 scratch 0;
#X obj 154 181 readsf~ 2 44100;
#X obj 152 224 dac~;
#X obj 180 127 bng 15 250 50 0 empty empty empty 17 7 0 10 -262144
-1 -1;
#X obj 182 154 tgl 15 0 empty empty empty 17 7 0 10 -262144 -1 -1 0
1;
#X msg 150 97 open sound/scratch.wav;
#X obj 221 134 delay 50;
#X obj 169 47 inlet;
#X connect 0 0 1 0;
#X connect 0 1 1 1;
#X connect 2 0 5 0;
#X connect 3 0 0 0;
#X connect 4 0 0 0;
#X connect 4 0 2 0;
#X connect 5 0 3 0;
#X connect 6 0 4 0;
#X restore -685 869 pd scratch;
#N canvas 0 22 450 300 scratch2 0;
#X obj 148 195 readsf~ 2 44100;
#X obj 143 241 dac~;
#X obj 211 147 bng 15 250 50 0 empty empty empty 17 7 0 10 -262144
-1 -1;
#X obj 212 175 tgl 15 0 empty empty empty 17 7 0 10 -262144 -1 -1 0
1;
#X msg 148 114 open sound/scratch2.wav;
#X obj 146 59 inlet;
#X connect 0 0 1 0;
#X connect 0 1 1 1;
#X connect 2 0 3 0;
#X connect 3 0 0 0;
#X connect 4 0 0 0;
#X connect 4 0 2 0;
#X connect 5 0 4 0;
#X restore -380 865 pd scratch2;
#N canvas 0 22 450 300 button 0;
#X obj 132 198 readsf~ 2 44100;
#X obj 125 244 dac~;
#X obj 178 149 bng 15 250 50 0 empty empty empty 17 7 0 10 -262144
-1 -1;
#X obj 178 173 tgl 15 0 empty empty empty 17 7 0 10 -262144 -1 -1 0
1;
#X msg 128 122 open sound/button.wav;
#X obj 132 59 inlet;
#X connect 0 0 1 0;
#X connect 0 1 1 1;
#X connect 2 0 3 0;
#X connect 3 0 0 0;
#X connect 4 0 0 0;
#X connect 4 0 2 0;
#X connect 5 0 4 0;
#X restore -874 867 pd button;
#N canvas 0 22 450 300 action 0;
#X obj 123 212 readsf~ 2 44100;
#X obj 124 247 dac~;
#X obj 173 162 bng 15 250 50 0 empty empty empty 17 7 0 10 -262144
-1 -1;
#X obj 174 187 tgl 15 0 empty empty empty 17 7 0 10 -262144 -1 -1 0
1;
#X msg 116 117 open sound/action.wav;
#X obj 119 45 inlet;
#X connect 0 0 1 0;
#X connect 0 1 1 1;
#X connect 2 0 3 0;
#X connect 3 0 0 0;
#X connect 4 0 0 0;
#X connect 4 0 2 0;
#X connect 5 0 4 0;
#X restore -100 836 pd action;
#X obj -350 1185 gemhead;
#X floatatom -264 1684 5 0 0 1 size - -;
#X floatatom -262 1730 3 0 0 2 segments - -;
#X obj -266 1643 r \$0-s3d;
#X obj -347 1547 scaleXYZ 0.5 0.5 0.5;
#X msg -95 1430 1 0 0;
#X msg 73 1431 0 0 1;
#X obj -349 1251 color;
#X obj 315 1551 vsl 15 128 0.3 2 0 0 empty empty empty 0 -9 0 10 -258113
-1 -1 1494 1;
#X msg 184 1377 0.9;
#X obj 359 1551 vsl 15 128 0.3 2 0 0 empty empty empty 0 -9 0 10 -4160
-1 -1 1494 1;
#X obj 272 1551 vsl 15 128 0.3 2 0 0 empty empty empty 0 -9 0 10 -4034
-1 -1 1494 1;
#X msg 131 1379 0.9;
#X msg 80 1378 0.9;
#X msg 161 1475 0.5;
#X obj -347 1385 translateXYZ 1 1 1;
#X msg -48 1430 0 1 1;
#X msg -3 1430 0.5 0 0.3;
#N canvas 0 22 620 497 metro 0;
#X floatatom 170 221 5 0 0 0 - - -;
#X floatatom 222 218 5 0 0 0 - - -;
#X obj 152 181 f;
#X obj 154 117 tgl 15 0 empty empty empty 17 7 0 10 -262144 -1 -1 1
1;
#X floatatom 125 219 5 0 0 0 - - -;
#X obj 153 152 metro 100;
#X obj 198 178 + 4;
#X obj 154 19 inlet;
#X obj 63 265 rotateXYZ;
#X obj 147 290 outlet;
#X obj 196 76 loadbang;
#X connect 0 0 8 2;
#X connect 1 0 8 3;
#X connect 2 0 4 0;
#X connect 2 0 0 0;
#X connect 2 0 1 0;
#X connect 2 0 6 0;
#X connect 3 0 5 0;
#X connect 4 0 8 1;
#X connect 5 0 2 0;
#X connect 6 0 2 1;
#X connect 7 0 8 0;
#X connect 8 0 9 0;
#X connect 10 0 3 0;
#X restore -349 1218 pd metro;
#X obj -347 1643 pix_texture;
#X obj -347 1610 pix_image bois.JPG;
#X msg -145 1430 1 1 1;
#X obj -348 1787 sphere3d;
#X text -150 1712 fin sous-programme;
#X text -199 1643 permet de dessiner fill-line-point;
#X text -217 1730 permet de modifier resolution de la sphere;
#X obj -208 16 inlet packet;
#X obj -208 55 unpack f f f;
#X floatatom -207 96 5 0 0 0 - - -;
#X floatatom -168 96 5 0 0 0 - - -;
#X floatatom -128 96 5 0 0 0 - - -;
#X obj -1319 806 bng 15 250 50 0 empty empty empty 17 7 0 10 -262144
-1 -1;
#X obj -1203 207 == 10;
#X obj -1240 262 spigot;
#X obj -868 228 == 8;
#X obj -903 268 spigot;
#X obj -658 213 == 6;
#X obj -657 274 spigot;
#X obj -333 242 == 7;
#X obj -367 268 spigot;
#X obj -66 198 == 9;
#X obj -61 228 spigot;
#X text 32 1340 fin de programme;
#X obj 617 230 inlet keyboard;
#X floatatom 617 319 5 0 0 0 - - -;
#X obj 398 396 == 49;
#X obj 398 425 spigot;
#X obj 618 413 spigot;
#X obj 618 385 == 50;
#X obj 458 455 bng 15 250 50 0 empty empty empty 17 7 0 10 -262144
-1 -1;
#X obj 618 441 bng 15 250 50 0 empty empty empty 17 7 0 10 -262144
-1 -1;
#X obj 434 658 tgl 15 0 empty empty empty 17 7 0 10 -262144 -1 -1 1
1;
#X obj 624 660 tgl 15 0 empty empty empty 17 7 0 10 -262144 -1 -1 0
1;
#N canvas 45 22 1188 671 visu1 0;
#X obj 55 449 cube;
#X obj 9 49 gemhead;
#X obj 12 21 inlet;
#X obj 93 397 r \$0-s3d;
#X obj 9 177 rotateXYZ 110 110 0;
#N canvas 618 22 499 407 rotation 0;
#X floatatom 200 251 5 0 0 0 - - -;
#X obj 182 211 f;
#X obj 184 147 tgl 15 0 empty empty empty 17 7 0 10 -262144 -1 -1 1
1;
#X floatatom 155 249 5 0 0 0 - - -;
#X obj 174 381 outlet;
#X obj 139 349 pack f f;
#X obj 183 182 metro 100;
#X obj 228 208 + 1;
#X obj 175 94 loadbang;
#X connect 0 0 5 1;
#X connect 1 0 3 0;
#X connect 1 0 0 0;
#X connect 1 0 7 0;
#X connect 2 0 6 0;
#X connect 3 0 5 0;
#X connect 5 0 4 0;
#X connect 6 0 1 0;
#X connect 7 0 1 1;
#X connect 8 0 2 0;
#X restore 46 120 pd rotation;
#X obj 46 147 unpack f f;
#X obj 9 78 scaleXYZ 1.3 1.3 1.3;
#X obj 52 281 pix_film;
#X obj 53 339 pix_texture;
#X obj 266 171 bng 15 250 50 0 empty empty pix_load 20 8 0 8 -262144
-1 -1;
#N canvas 4 107 587 366 image 0;
#X obj 77 344 outlet;
#X obj 223 55 inlet;
#X msg 223 123 open \$1;
#X obj 223 100 openpanel;
#X obj 377 166 loadbang;
#X msg 372 205 auto 1;
#X connect 1 0 3 0;
#X connect 2 0 0 0;
#X connect 3 0 2 0;
#X connect 4 0 5 0;
#X connect 5 0 0 0;
#X restore 207 199 pd image;
#X text 604 263 open an image;
#X text 597 276 (JPEG \, TIFF \, ..);
#X obj 413 132 loadbang;
#X obj 153 286 t f;
#X obj 729 38 inlet numMarker;
#X floatatom 729 96 5 0 0 0 - - -;
#X obj 729 67 unpack f;
#X msg 695 251 1 0 0;
#X msg 651 251 0 0 1;
#X msg 815 250 0 1 0;
#X msg 737 251 0.2 0.2 0.4;
#X obj 656 142 == 6;
#X obj 704 141 == 7;
#X obj 750 141 == 8;
#X obj 794 140 == 9;
#X obj 843 141 == 10;
#X obj 655 173 spigot;
#X obj 702 174 spigot;
#X obj 845 172 spigot;
#X obj 749 173 spigot;
#X obj 796 173 spigot;
#X obj 654 201 bng 15 250 50 0 empty empty empty 17 7 0 10 -262144
-1 -1;
#X obj 702 202 bng 15 250 50 0 empty empty empty 17 7 0 10 -262144
-1 -1;
#X obj 752 202 bng 15 250 50 0 empty empty empty 17 7 0 10 -262144
-1 -1;
#X obj 795 202 bng 15 250 50 0 empty empty empty 17 7 0 10 -262144
-1 -1;
#X obj 844 201 bng 15 250 50 0 empty empty empty 17 7 0 10 -262144
-1 -1;
#X msg 861 251 0.4 0.2 0.4;
#X connect 1 0 7 0;
#X connect 2 0 1 0;
#X connect 3 0 0 0;
#X connect 4 0 8 0;
#X connect 5 0 6 0;
#X connect 6 0 4 1;
#X connect 6 1 4 2;
#X connect 7 0 4 0;
#X connect 8 0 9 0;
#X connect 8 2 15 0;
#X connect 9 0 0 0;
#X connect 10 0 11 0;
#X connect 11 0 8 0;
#X connect 14 0 10 0;
#X connect 15 0 8 1;
#X connect 16 0 18 0;
#X connect 17 0 23 0;
#X connect 17 0 24 0;
#X connect 17 0 25 0;
#X connect 17 0 26 0;
#X connect 17 0 27 0;
#X connect 18 0 17 0;
#X connect 23 0 28 0;
#X connect 23 0 28 1;
#X connect 24 0 29 0;
#X connect 24 0 29 1;
#X connect 25 0 31 0;
#X connect 25 0 31 1;
#X connect 26 0 32 0;
#X connect 26 0 32 1;
#X connect 27 0 30 0;
#X connect 27 0 30 1;
#X connect 28 0 33 0;
#X connect 29 0 34 0;
#X connect 30 0 37 0;
#X connect 31 0 35 0;
#X connect 32 0 36 0;
#X connect 33 0 20 0;
#X connect 34 0 19 0;
#X connect 35 0 22 0;
#X connect 36 0 21 0;
#X connect 37 0 38 0;
#X restore 813 670 pd visu1;
#N canvas 0 31 1280 668 visu2 0;
#X msg 574 8 45;
#X floatatom 574 31 5 0 0 0 - - -;
#X obj 574 -22 bng 15 250 50 0 empty empty empty 17 7 0 10 -262144
-1 -1;
#X obj 513 273 sphere3d;
#X obj 434 -25 gemhead;
#X obj 509 175 r \$0-s3d;
#X obj 434 36 color 1 1 0;
#X obj 434 -65 inlet balle3;
#X msg 158 -4 45;
#X floatatom 158 19 5 0 0 0 - - -;
#X obj 158 -34 bng 15 250 50 0 empty empty empty 17 7 0 10 -262144
-1 -1;
#X obj 97 261 sphere3d;
#X obj 18 -37 gemhead;
#X obj 93 163 r \$0-s3d;
#N canvas 0 22 450 300 rot1 0;
#X floatatom 190 241 5 0 0 0 - - -;
#X floatatom 242 238 5 0 0 0 - - -;
#X obj 172 201 f;
#X obj 174 137 tgl 15 0 empty empty empty 17 7 0 10 -262144 -1 -1 1
1;
#X floatatom 145 239 5 0 0 0 - - -;
#X obj 173 172 metro 100;
#X obj 218 198 + 4;
#X obj 174 39 inlet;
#X obj 83 285 rotateXYZ;
#X obj 167 310 outlet;
#X obj 240 126 loadbang;
#X connect 0 0 8 2;
#X connect 1 0 8 3;
#X connect 2 0 4 0;
#X connect 2 0 0 0;
#X connect 2 0 1 0;
#X connect 2 0 6 0;
#X connect 3 0 5 0;
#X connect 4 0 8 1;
#X connect 5 0 2 0;
#X connect 6 0 2 1;
#X connect 7 0 8 0;
#X connect 8 0 9 0;
#X connect 10 0 3 0;
#X restore 18 55 pd rot1;
#X msg 388 -2 45;
#X floatatom 388 21 5 0 0 0 - - -;
#X obj 388 -32 bng 15 250 50 0 empty empty empty 17 7 0 10 -262144
-1 -1;
#X obj 327 263 sphere3d;
#X obj 248 -35 gemhead;
#X obj 323 165 r \$0-s3d;
#X msg 821 -8 45;
#X floatatom 821 15 5 0 0 0 - - -;
#X obj 821 -38 bng 15 250 50 0 empty empty empty 17 7 0 10 -262144
-1 -1;
#X obj 760 257 sphere3d;
#X obj 681 -41 gemhead;
#X obj 756 159 r \$0-s3d;
#X obj 681 107 translateXYZ 5 5 0;
#N canvas 0 22 450 300 rot2 0;
#X floatatom 190 241 5 0 0 0 - - -;
#X floatatom 242 238 5 0 0 0 - - -;
#X obj 172 201 f;
#X obj 174 137 tgl 15 0 empty empty empty 17 7 0 10 -262144 -1 -1 1
1;
#X floatatom 145 239 5 0 0 0 - - -;
#X obj 173 172 metro 100;
#X obj 218 198 + 4;
#X obj 174 39 inlet;
#X obj 83 285 rotateXYZ;
#X obj 167 310 outlet;
#X obj 268 99 loadbang;
#X connect 0 0 8 2;
#X connect 1 0 8 3;
#X connect 2 0 4 0;
#X connect 2 0 0 0;
#X connect 2 0 1 0;
#X connect 2 0 6 0;
#X connect 3 0 5 0;
#X connect 4 0 8 1;
#X connect 5 0 2 0;
#X connect 6 0 2 1;
#X connect 7 0 8 0;
#X connect 8 0 9 0;
#X connect 10 0 3 0;
#X restore 248 57 pd rot2;
#N canvas 0 22 450 300 rot3 0;
#X floatatom 190 241 5 0 0 0 - - -;
#X floatatom 242 238 5 0 0 0 - - -;
#X obj 172 201 f;
#X obj 174 137 tgl 15 0 empty empty empty 17 7 0 10 -262144 -1 -1 1
1;
#X floatatom 145 239 5 0 0 0 - - -;
#X obj 173 172 metro 100;
#X obj 218 198 + 4;
#X obj 174 39 inlet;
#X obj 83 285 rotateXYZ;
#X obj 167 310 outlet;
#X obj 227 97 loadbang;
#X connect 0 0 8 2;
#X connect 1 0 8 3;
#X connect 2 0 4 0;
#X connect 2 0 0 0;
#X connect 2 0 1 0;
#X connect 2 0 6 0;
#X connect 3 0 5 0;
#X connect 4 0 8 1;
#X connect 5 0 2 0;
#X connect 6 0 2 1;
#X connect 7 0 8 0;
#X connect 8 0 9 0;
#X connect 10 0 3 0;
#X restore 434 67 pd rot3;
#N canvas 0 22 450 300 rot4 0;
#X floatatom 190 241 5 0 0 0 - - -;
#X floatatom 242 238 5 0 0 0 - - -;
#X obj 172 201 f;
#X obj 174 137 tgl 15 0 empty empty empty 17 7 0 10 -262144 -1 -1 1
1;
#X floatatom 145 239 5 0 0 0 - - -;
#X obj 173 172 metro 100;
#X obj 218 198 + 4;
#X obj 174 39 inlet;
#X obj 83 285 rotateXYZ;
#X obj 167 310 outlet;
#X obj 272 109 loadbang;
#X connect 0 0 8 2;
#X connect 1 0 8 3;
#X connect 2 0 4 0;
#X connect 2 0 0 0;
#X connect 2 0 1 0;
#X connect 2 0 6 0;
#X connect 3 0 5 0;
#X connect 4 0 8 1;
#X connect 5 0 2 0;
#X connect 6 0 2 1;
#X connect 7 0 8 0;
#X connect 8 0 9 0;
#X connect 10 0 3 0;
#X restore 681 51 pd rot4;
#X obj 18 -77 inlet balle1;
#X obj 248 -75 inlet balle2;
#X obj 681 -81 inlet balle4;
#X obj 18 24 color 1 0 0;
#X obj 248 26 color 0 1 0;
#X obj 681 20 color 0 0 1;
#X obj 18 86 translateXYZ -5 -5 0;
#X obj 248 88 translateXYZ -10 5 0;
#X obj 434 98 translateXYZ 1 -2 0;
#X obj 18 -8 scaleXYZ 0.3 0.3 0.3;
#X obj 248 -6 scaleXYZ 0.3 0.3 0.3;
#X obj 434 4 scaleXYZ 0.3 0.3 0.3;
#X obj 681 -12 scaleXYZ 0.3 0.3 0.3;
#X obj 164 312 pix_image bois.jpg;
#X obj 162 347 pix_texture;
#X obj 914 -64 inlet numMarker;
#X floatatom 914 -6 5 0 0 0 - - -;
#X obj 914 -35 unpack f;
#X msg 903 190 1 0 0;
#X msg 859 190 0 0 1;
#X msg 1023 189 0 1 0;
#X msg 945 190 0.2 0.2 0.4;
#X obj 841 40 == 6;
#X obj 889 39 == 7;
#X obj 935 39 == 8;
#X obj 979 38 == 9;
#X obj 1028 39 == 10;
#X obj 840 71 spigot;
#X obj 887 72 spigot;
#X obj 1030 70 spigot;
#X obj 934 71 spigot;
#X obj 981 71 spigot;
#X obj 839 99 bng 15 250 50 0 empty empty empty 17 7 0 10 -262144 -1
-1;
#X obj 887 100 bng 15 250 50 0 empty empty empty 17 7 0 10 -262144
-1 -1;
#X obj 937 100 bng 15 250 50 0 empty empty empty 17 7 0 10 -262144
-1 -1;
#X obj 980 100 bng 15 250 50 0 empty empty empty 17 7 0 10 -262144
-1 -1;
#X obj 1029 99 bng 15 250 50 0 empty empty empty 17 7 0 10 -262144
-1 -1;
#X msg 1069 190 0.4 0.2 0.4;
#X connect 0 0 1 0;
#X connect 1 0 3 2;
#X connect 2 0 0 0;
#X connect 4 0 42 0;
#X connect 5 0 3 0;
#X connect 6 0 29 0;
#X connect 7 0 2 0;
#X connect 7 0 4 0;
#X connect 8 0 9 0;
#X connect 9 0 11 2;
#X connect 10 0 8 0;
#X connect 12 0 40 0;
#X connect 13 0 11 0;
#X connect 14 0 37 0;
#X connect 15 0 16 0;
#X connect 16 0 18 2;
#X connect 17 0 15 0;
#X connect 19 0 41 0;
#X connect 20 0 18 0;
#X connect 21 0 22 0;
#X connect 22 0 24 2;
#X connect 23 0 21 0;
#X connect 25 0 43 0;
#X connect 26 0 24 0;
#X connect 27 0 24 0;
#X connect 28 0 38 0;
#X connect 29 0 39 0;
#X connect 30 0 27 0;
#X connect 31 0 10 0;
#X connect 31 0 12 0;
#X connect 32 0 17 0;
#X connect 32 0 19 0;
#X connect 33 0 23 0;
#X connect 33 0 25 0;
#X connect 34 0 14 0;
#X connect 36 0 30 0;
#X connect 37 0 11 0;
#X connect 38 0 44 0;
#X connect 39 0 3 0;
#X connect 40 0 34 0;
#X connect 41 0 28 0;
#X connect 42 0 6 0;
#X connect 43 0 36 0;
#X connect 44 0 45 0;
#X connect 45 0 18 0;
#X connect 46 0 48 0;
#X connect 47 0 53 0;
#X connect 47 0 54 0;
#X connect 47 0 55 0;
#X connect 47 0 56 0;
#X connect 47 0 57 0;
#X connect 48 0 47 0;
#X connect 49 0 6 1;
#X connect 50 0 36 1;
#X connect 52 0 35 1;
#X connect 53 0 58 0;
#X connect 53 0 58 1;
#X connect 54 0 59 0;
#X connect 54 0 59 1;
#X connect 55 0 61 0;
#X connect 55 0 61 1;
#X connect 56 0 62 0;
#X connect 56 0 62 1;
#X connect 57 0 60 0;
#X connect 57 0 60 1;
#X connect 58 0 63 0;
#X connect 59 0 64 0;
#X connect 60 0 67 0;
#X connect 61 0 65 0;
#X connect 62 0 66 0;
#X connect 63 0 50 0;
#X connect 64 0 49 0;
#X connect 65 0 52 0;
#X connect 66 0 51 0;
#X connect 67 0 68 0;
#X connect 68 0 34 1;
#X restore 624 685 pd visu2;
#X msg 472 490 1;
#X msg 505 490 0;
#X floatatom 472 519 5 0 0 0 - - -;
#X obj 433 559 == 1;
#X obj 435 594 spigot;
#X floatatom 662 520 5 0 0 0 - - -;
#X obj 623 560 == 1;
#X obj 625 595 spigot;
#X msg 636 492 1;
#X msg 604 492 0;
#N canvas 473 25 807 700 visu3 0;
#X obj 56 42 inlet;
#X obj 55 86 gemhead;
#X obj 50 587 scaleXYZ;
#X obj 50 766 sphere3d;
#X obj 284 493 loadbang;
#X msg 283 550 45;
#X floatatom 283 580 5 0 0 0 - - -;
#X obj 282 523 bng 15 250 50 0 empty empty empty 17 7 0 10 -262144
-1 -1;
#X obj 194 337 vsl 15 128 0.3 2 0 0 empty empty empty 0 -9 0 10 -258113
-1 -1 9712 1;
#X obj 232 336 vsl 15 128 0.3 2 0 0 empty empty empty 0 -9 0 10 -4160
-1 -1 9712 1;
#X obj 155 337 vsl 15 128 0.3 2 0 0 empty empty empty 0 -9 0 10 -4034
-1 -1 9712 1;
#X msg 299 355 2;
#N canvas 0 22 1122 700 compt 0;
#X floatatom 78 180 5 0 0 0 - - -;
#X obj 95 139 f;
#X obj 97 75 tgl 15 0 empty empty empty 17 7 0 10 -262144 -1 -1 1 1
;
#X obj 164 29 inlet;
#X obj 826 613 outlet;
#X obj 177 195 bng 15 250 50 0 empty empty empty 17 7 0 10 -262144
-1 -1;
#X floatatom 807 98 5 0 0 0 - - -;
#X obj 756 262 == 0;
#X obj 873 262 == 1;
#X floatatom 821 530 5 0 0 0 - - -;
#X obj 754 306 spigot;
#X obj 869 301 spigot;
#X obj 765 337 bng 15 250 50 0 empty empty empty 17 7 0 10 -262144
-1 -1;
#X obj 872 331 bng 15 250 50 0 empty empty empty 17 7 0 10 -262144
-1 -1;
#X obj 869 380 - 0.1;
#X obj 881 448 +;
#X obj 760 643 spigot;
#X obj 681 478 bng 15 250 50 0 empty empty empty 17 7 0 10 -262144
-1 -1;
#X obj 894 644 spigot;
#X obj 970 573 bng 15 250 50 0 empty empty empty 17 7 0 10 -262144
-1 -1;
#X obj 774 438 +;
#X obj 766 382 0.1;
#X msg 1028 250 0;
#X msg 626 251 1;
#X obj 706 112 +;
#X msg 669 86 0;
#X obj 762 599 > 1.6;
#X obj 895 604 < 0.4;
#X msg 799 28 0;
#X obj 96 110 metro 200;
#X obj 141 136 + 6;
#X obj 131 50 loadbang;
#X connect 1 0 0 0;
#X connect 1 0 5 0;
#X connect 1 0 30 0;
#X connect 2 0 29 0;
#X connect 5 0 25 0;
#X connect 6 0 24 1;
#X connect 6 0 7 0;
#X connect 6 0 8 0;
#X connect 7 0 10 0;
#X connect 7 0 10 1;
#X connect 8 0 11 0;
#X connect 8 0 11 1;
#X connect 9 0 15 1;
#X connect 9 0 20 1;
#X connect 9 0 4 0;
#X connect 10 0 12 0;
#X connect 11 0 13 0;
#X connect 12 0 21 0;
#X connect 13 0 14 0;
#X connect 14 0 15 0;
#X connect 15 0 9 0;
#X connect 15 0 27 0;
#X connect 16 0 17 0;
#X connect 17 0 23 0;
#X connect 18 0 19 0;
#X connect 19 0 22 0;
#X connect 20 0 9 0;
#X connect 20 0 26 0;
#X connect 21 0 20 0;
#X connect 22 0 6 0;
#X connect 23 0 6 0;
#X connect 24 0 6 0;
#X connect 25 0 24 0;
#X connect 26 0 16 0;
#X connect 26 0 16 1;
#X connect 27 0 18 0;
#X connect 27 0 18 1;
#X connect 28 0 6 0;
#X connect 29 0 1 0;
#X connect 30 0 1 1;
#X connect 31 0 2 0;
#X restore 281 232 pd compt;
#X obj 50 636 rotateXYZ;
#X floatatom 123 580 5 0 0 0 - - -;
#X floatatom 171 581 5 0 0 0 - - -;
#X floatatom 213 581 5 0 0 0 - - -;
#X floatatom 223 533 5 0 0 0 - - -;
#X obj 51 675 translateXYZ;
#X obj 55 735 pix_image bois.jpg;
#X obj 508 6 inlet numMarker;
#X floatatom 508 64 5 0 0 0 - - -;
#X obj 508 35 unpack f;
#X obj 54 189 color;
#X msg 142 147 1 0 0;
#X msg 98 147 0 0 1;
#X msg 262 146 0 1 0;
#X msg 184 147 0.2 0.2 0.4;
#X obj 435 110 == 6;
#X obj 483 109 == 7;
#X obj 529 109 == 8;
#X obj 573 108 == 9;
#X obj 622 109 == 10;
#X obj 434 141 spigot;
#X obj 481 142 spigot;
#X obj 624 140 spigot;
#X obj 528 141 spigot;
#X obj 575 141 spigot;
#X obj 433 169 bng 15 250 50 0 empty empty empty 17 7 0 10 -262144
-1 -1;
#X obj 481 170 bng 15 250 50 0 empty empty empty 17 7 0 10 -262144
-1 -1;
#X obj 531 170 bng 15 250 50 0 empty empty empty 17 7 0 10 -262144
-1 -1;
#X obj 574 170 bng 15 250 50 0 empty empty empty 17 7 0 10 -262144
-1 -1;
#X obj 623 169 bng 15 250 50 0 empty empty empty 17 7 0 10 -262144
-1 -1;
#X msg 308 147 0.4 0.2 0.4;
#X connect 0 0 1 0;
#X connect 1 0 23 0;
#X connect 2 0 13 0;
#X connect 4 0 7 0;
#X connect 5 0 6 0;
#X connect 6 0 3 2;
#X connect 7 0 5 0;
#X connect 8 0 2 2;
#X connect 9 0 2 3;
#X connect 10 0 2 1;
#X connect 11 0 9 0;
#X connect 12 0 10 0;
#X connect 12 0 8 0;
#X connect 12 0 9 0;
#X connect 13 0 18 0;
#X connect 14 0 13 1;
#X connect 15 0 13 2;
#X connect 16 0 13 3;
#X connect 17 0 16 0;
#X connect 17 0 15 0;
#X connect 17 0 14 0;
#X connect 18 0 3 0;
#X connect 20 0 22 0;
#X connect 21 0 28 0;
#X connect 21 0 29 0;
#X connect 21 0 30 0;
#X connect 21 0 31 0;
#X connect 21 0 32 0;
#X connect 22 0 21 0;
#X connect 23 0 2 0;
#X connect 24 0 23 1;
#X connect 25 0 23 1;
#X connect 26 0 23 1;
#X connect 27 0 23 1;
#X connect 28 0 33 0;
#X connect 28 0 33 1;
#X connect 29 0 34 0;
#X connect 29 0 34 1;
#X connect 30 0 36 0;
#X connect 30 0 36 1;
#X connect 31 0 37 0;
#X connect 31 0 37 1;
#X connect 32 0 35 0;
#X connect 32 0 35 1;
#X connect 33 0 38 0;
#X connect 34 0 39 0;
#X connect 35 0 42 0;
#X connect 36 0 40 0;
#X connect 37 0 41 0;
#X connect 38 0 25 0;
#X connect 39 0 24 0;
#X connect 40 0 27 0;
#X connect 41 0 26 0;
#X connect 42 0 43 0;
#X connect 43 0 23 1;
#X restore 434 704 pd visu3;
#X obj 811 636 tgl 15 0 empty empty empty 17 7 0 10 -262144 -1 -1 0
1;
#X obj 804 412 spigot;
#X obj 804 440 bng 15 250 50 0 empty empty empty 17 7 0 10 -262144
-1 -1;
#X floatatom 848 519 5 0 0 0 - - -;
#X obj 809 559 == 1;
#X obj 811 594 spigot;
#X msg 822 491 1;
#X msg 790 491 0;
#X obj 804 384 == 51;
#X obj 617 272 unpack f;
#X obj 282 393 == 52;
#X obj 289 445 spigot;
#X obj 300 498 bng 15 250 50 0 empty empty empty 17 7 0 10 -262144
-1 -1;
#X msg 333 515 1;
#X msg 366 515 0;
#X floatatom 333 544 5 0 0 0 - - -;
#X obj 333 594 == 1;
#X obj 335 629 spigot;
#X obj 334 660 tgl 15 0 empty empty empty 17 7 0 10 -262144 -1 -1 0
1;
#X obj -143 1669 bng 15 250 50 0 empty empty empty 17 7 0 10 -262144
-1 -1;
#X msg -184 1690 45;
#X obj 83 124 pack f;
#X obj -1162 367 < 2.75;
#X obj -1162 399 spigot;
#X msg -1131 427 1;
#X floatatom -1161 454 5 0 0 0 - - -;
#X obj -1255 400 spigot;
#X msg -1224 428 1;
#X floatatom -1254 455 5 0 0 0 - - -;
#X msg -1275 428 0;
#X obj -1343 402 spigot;
#X msg -1312 430 1;
#X floatatom -1342 457 5 0 0 0 - - -;
#X msg -1363 430 0;
#X obj -1290 496 +;
#X floatatom -1289 529 5 0 0 0 - - -;
#X obj -1288 562 == 2;
#X obj -1284 606 spigot;
#X msg -1280 636 2;
#X floatatom -1279 665 5 0 0 0 - - -;
#X obj -1189 695 +;
#X floatatom -1188 724 5 0 0 0 - - -;
#X obj -1187 767 == 3;
#X obj -1343 371 > -4.4;
#X obj -1253 371 < -4.2;
#X msg -1182 427 0;
#X msg -1126 686 0;
#X obj -208 133 pack f f;
#X obj -1185 822 spigot;
#X floatatom -1260 333 5 0 0 0 - - -;
#X obj -1259 291 unpack f f;
#X obj -903 303 unpack f f;
#X obj -1035 800 bng 15 250 50 0 empty empty empty 17 7 0 10 -262144
-1 -1;
#X obj -878 361 < 2.75;
#X obj -878 393 spigot;
#X msg -847 421 1;
#X floatatom -877 448 5 0 0 0 - - -;
#X obj -971 394 spigot;
#X msg -940 422 1;
#X floatatom -970 449 5 0 0 0 - - -;
#X msg -991 422 0;
#X obj -1059 396 spigot;
#X msg -1028 424 1;
#X floatatom -1058 451 5 0 0 0 - - -;
#X msg -1079 424 0;
#X obj -1006 490 +;
#X floatatom -1005 523 5 0 0 0 - - -;
#X obj -1004 556 == 2;
#X obj -1000 600 spigot;
#X msg -996 630 2;
#X floatatom -995 659 5 0 0 0 - - -;
#X obj -905 689 +;
#X floatatom -904 718 5 0 0 0 - - -;
#X obj -903 761 == 3;
#X obj -1059 365 > -4.4;
#X obj -969 365 < -4.2;
#X msg -898 421 0;
#X msg -842 680 0;
#X obj -899 817 spigot;
#X obj -658 306 unpack f f;
#X obj -732 793 bng 15 250 50 0 empty empty empty 17 7 0 10 -262144
-1 -1;
#X obj -575 354 < 2.75;
#X obj -575 386 spigot;
#X msg -544 414 1;
#X floatatom -574 441 5 0 0 0 - - -;
#X obj -668 387 spigot;
#X msg -637 415 1;
#X floatatom -667 442 5 0 0 0 - - -;
#X msg -688 415 0;
#X obj -756 389 spigot;
#X msg -725 417 1;
#X floatatom -755 444 5 0 0 0 - - -;
#X msg -776 417 0;
#X obj -703 483 +;
#X floatatom -702 516 5 0 0 0 - - -;
#X obj -701 549 == 2;
#X obj -697 593 spigot;
#X msg -693 623 2;
#X floatatom -692 652 5 0 0 0 - - -;
#X obj -602 682 +;
#X floatatom -601 711 5 0 0 0 - - -;
#X obj -600 754 == 3;
#X obj -756 358 > -4.4;
#X obj -666 358 < -4.2;
#X msg -595 414 0;
#X msg -539 673 0;
#X obj -596 810 spigot;
#X obj -368 304 unpack f f;
#X obj -442 791 bng 15 250 50 0 empty empty empty 17 7 0 10 -262144
-1 -1;
#X obj -285 352 < 2.75;
#X obj -285 384 spigot;
#X msg -254 412 1;
#X floatatom -284 439 5 0 0 0 - - -;
#X obj -378 385 spigot;
#X msg -347 413 1;
#X floatatom -377 440 5 0 0 0 - - -;
#X msg -398 413 0;
#X obj -466 387 spigot;
#X msg -435 415 1;
#X floatatom -465 442 5 0 0 0 - - -;
#X msg -486 415 0;
#X obj -413 481 +;
#X floatatom -412 514 5 0 0 0 - - -;
#X obj -411 547 == 2;
#X obj -407 591 spigot;
#X msg -403 621 2;
#X floatatom -402 650 5 0 0 0 - - -;
#X obj -312 680 +;
#X floatatom -311 709 5 0 0 0 - - -;
#X obj -310 752 == 3;
#X obj -466 356 > -4.4;
#X obj -376 356 < -4.2;
#X msg -305 412 0;
#X msg -249 671 0;
#X obj -306 808 spigot;
#X obj -62 302 unpack f f;
#X obj -136 789 bng 15 250 50 0 empty empty empty 17 7 0 10 -262144
-1 -1;
#X obj 21 350 < 2.75;
#X obj 21 382 spigot;
#X msg 52 410 1;
#X floatatom 22 437 5 0 0 0 - - -;
#X obj -72 383 spigot;
#X msg -41 411 1;
#X floatatom -71 438 5 0 0 0 - - -;
#X msg -92 411 0;
#X obj -160 385 spigot;
#X msg -129 413 1;
#X floatatom -159 440 5 0 0 0 - - -;
#X msg -180 413 0;
#X obj -107 479 +;
#X floatatom -106 512 5 0 0 0 - - -;
#X obj -105 545 == 2;
#X obj -101 589 spigot;
#X msg -97 619 2;
#X floatatom -96 648 5 0 0 0 - - -;
#X obj -6 678 +;
#X floatatom -5 707 5 0 0 0 - - -;
#X obj -4 750 == 3;
#X obj -160 354 > -4.4;
#X obj -70 354 < -4.2;
#X msg 1 410 0;
#X msg 57 669 0;
#X obj 0 806 spigot;
#X msg 641 905 10;
#X msg 494 902 6;
#X msg 566 904 8;
#X msg 530 903 7;
#X msg 602 905 9;
#X floatatom 558 943 5 0 0 0 - - -;
#X obj 558 975 pack f;
#X obj 993 632 tgl 15 0 empty empty empty 17 7 0 10 -262144 -1 -1 0
1;
#X obj 986 408 spigot;
#X obj 986 436 bng 15 250 50 0 empty empty empty 17 7 0 10 -262144
-1 -1;
#X floatatom 1030 515 5 0 0 0 - - -;
#X obj 991 555 == 1;
#X obj 993 590 spigot;
#X msg 1004 487 1;
#X msg 972 487 0;
#N canvas 644 22 636 699 visu4 1;
#X obj 150 141 cnv 15 190 400 empty empty empty 20 12 0 14 -228992
-66577 0;
#X obj 159 202 cnv 15 175 215 empty empty empty 20 12 0 14 -106138
-66577 0;
#X obj 149 420 cnv 15 120 25 empty empty empty 20 12 0 14 -24198 -66577
0;
#X obj 94 53 gemhead;
#X obj 211 149 bng 15 250 50 0 empty empty pix_load 20 8 0 8 -262144
-1 -1;
#N canvas 4 107 587 366 image 0;
#X obj 77 344 outlet;
#X obj 223 55 inlet;
#X msg 223 123 open \$1;
#X obj 223 100 openpanel;
#X obj 377 166 loadbang;
#X msg 372 205 auto 1;
#X connect 1 0 3 0;
#X connect 2 0 0 0;
#X connect 3 0 2 0;
#X connect 4 0 5 0;
#X connect 5 0 0 0;
#X restore 152 177 pd image;
#X obj 152 589 pix_texture;
#X floatatom 167 205 5 0 64 1 segments - -;
#X floatatom 182 225 5 0 0 1 sourceAngle - -;
#X text 217 169 open an image;
#X text 210 182 (JPEG \, TIFF \, ..);
#X obj 152 560 pix_kaleidoscope;
#X floatatom 213 301 5 0 0 1 outputAngle - -;
#X floatatom 259 397 5 0.1 10 1 sap - -;
#X floatatom 243 381 5 0 1 1 rlp - -;
#X obj 228 360 pack;
#X obj 282 360 t b f;
#X floatatom 228 321 4 0 100 0 - - -;
#X floatatom 280 321 4 0 100 0 - - -;
#X obj 228 340 * 0.01;
#X obj 280 340 * 0.01;
#X obj 198 282 pack;
#X obj 252 282 t b f;
#X floatatom 198 243 4 0 100 0 - - -;
#X floatatom 250 243 4 0 100 0 - - -;
#X obj 198 262 * 0.01;
#X obj 250 262 * 0.01;
#X obj 96 274 pix_film;
#X obj 57 280 t f;
#X obj 92 10 inlet;
#X text 374 243 open an image;
#X text 367 256 (JPEG \, TIFF \, ..);
#X obj 499 18 inlet numMarker;
#X floatatom 499 76 5 0 0 0 - - -;
#X obj 499 47 unpack f;
#X msg 465 231 1 0 0;
#X msg 421 231 0 0 1;
#X msg 585 230 0 1 0;
#X msg 507 231 0.2 0.2 0.4;
#X obj 426 122 == 6;
#X obj 474 121 == 7;
#X obj 520 121 == 8;
#X obj 564 120 == 9;
#X obj 613 121 == 10;
#X obj 425 153 spigot;
#X obj 472 154 spigot;
#X obj 615 152 spigot;
#X obj 519 153 spigot;
#X obj 566 153 spigot;
#X obj 424 181 bng 15 250 50 0 empty empty empty 17 7 0 10 -262144
-1 -1;
#X obj 472 182 bng 15 250 50 0 empty empty empty 17 7 0 10 -262144
-1 -1;
#X obj 522 182 bng 15 250 50 0 empty empty empty 17 7 0 10 -262144
-1 -1;
#X obj 565 182 bng 15 250 50 0 empty empty empty 17 7 0 10 -262144
-1 -1;
#X obj 614 181 bng 15 250 50 0 empty empty empty 17 7 0 10 -262144
-1 -1;
#X msg 631 231 0.4 0.2 0.4;
#X obj 152 621 rectangle 3.5 3;
#X obj 109 116 translateXYZ 1.7 0 0;
#X obj 347 51 loadbang;
#X connect 3 0 56 0;
#X connect 4 0 5 0;
#X connect 5 0 27 0;
#X connect 6 0 55 0;
#X connect 7 0 11 1;
#X connect 8 0 11 2;
#X connect 11 0 6 0;
#X connect 12 0 11 4;
#X connect 13 0 11 7;
#X connect 14 0 11 6;
#X connect 15 0 11 5;
#X connect 16 0 15 0;
#X connect 16 1 15 1;
#X connect 17 0 19 0;
#X connect 18 0 20 0;
#X connect 19 0 15 0;
#X connect 20 0 16 0;
#X connect 21 0 11 3;
#X connect 22 0 21 0;
#X connect 22 1 21 1;
#X connect 23 0 25 0;
#X connect 24 0 26 0;
#X connect 25 0 21 0;
#X connect 26 0 22 0;
#X connect 27 0 11 0;
#X connect 27 2 28 0;
#X connect 28 0 27 1;
#X connect 29 0 3 0;
#X connect 32 0 34 0;
#X connect 33 0 39 0;
#X connect 33 0 40 0;
#X connect 33 0 41 0;
#X connect 33 0 42 0;
#X connect 33 0 43 0;
#X connect 34 0 33 0;
#X connect 39 0 44 0;
#X connect 39 0 44 1;
#X connect 40 0 45 0;
#X connect 40 0 45 1;
#X connect 41 0 47 0;
#X connect 41 0 47 1;
#X connect 42 0 48 0;
#X connect 42 0 48 1;
#X connect 43 0 46 0;
#X connect 43 0 46 1;
#X connect 44 0 49 0;
#X connect 45 0 50 0;
#X connect 46 0 53 0;
#X connect 47 0 51 0;
#X connect 48 0 52 0;
#X connect 49 0 36 0;
#X connect 50 0 35 0;
#X connect 51 0 38 0;
#X connect 52 0 37 0;
#X connect 53 0 54 0;
#X connect 56 0 27 0;
#X connect 57 0 4 0;
#X restore 995 666 pd visu4;
#X obj 986 380 == 53;
#X connect 5 0 23 0;
#X connect 6 0 27 1;
#X connect 7 0 27 2;
#X connect 8 0 27 0;
#X connect 9 0 19 0;
#X connect 9 0 25 0;
#X connect 10 0 12 1;
#X connect 11 0 12 1;
#X connect 12 0 20 0;
#X connect 13 0 9 2;
#X connect 14 0 15 0;
#X connect 15 0 9 3;
#X connect 16 0 9 1;
#X connect 17 0 13 0;
#X connect 18 0 16 0;
#X connect 19 0 16 0;
#X connect 19 0 13 0;
#X connect 19 0 15 0;
#X connect 20 0 9 0;
#X connect 21 0 12 1;
#X connect 22 0 12 1;
#X connect 23 0 12 0;
#X connect 24 0 27 0;
#X connect 25 0 24 0;
#X connect 26 0 12 1;
#X connect 31 0 32 0;
#X connect 32 0 33 0;
#X connect 32 1 34 0;
#X connect 32 2 35 0;
#X connect 33 0 118 0;
#X connect 34 0 118 1;
#X connect 35 0 92 0;
#X connect 35 0 37 0;
#X connect 35 0 39 0;
#X connect 35 0 41 0;
#X connect 35 0 43 0;
#X connect 35 0 45 0;
#X connect 36 0 117 0;
#X connect 36 0 100 0;
#X connect 36 0 104 0;
#X connect 36 0 116 0;
#X connect 37 0 38 1;
#X connect 38 0 121 0;
#X connect 39 0 40 1;
#X connect 40 0 122 0;
#X connect 41 0 42 1;
#X connect 42 0 150 0;
#X connect 43 0 44 1;
#X connect 44 0 178 0;
#X connect 45 0 46 1;
#X connect 46 0 206 0;
#X connect 48 0 80 0;
#X connect 49 0 50 0;
#X connect 49 0 53 0;
#X connect 49 0 79 0;
#X connect 49 0 81 0;
#X connect 49 0 250 0;
#X connect 50 0 51 0;
#X connect 50 0 51 1;
#X connect 51 0 54 0;
#X connect 52 0 55 0;
#X connect 53 0 52 0;
#X connect 53 0 52 1;
#X connect 54 0 60 0;
#X connect 54 0 69 0;
#X connect 54 0 78 0;
#X connect 54 0 85 0;
#X connect 54 0 248 0;
#X connect 55 0 61 0;
#X connect 55 0 68 0;
#X connect 55 0 78 0;
#X connect 55 0 85 0;
#X connect 55 0 248 0;
#X connect 56 0 70 0;
#X connect 57 0 59 0;
#X connect 57 0 59 1;
#X connect 57 0 59 2;
#X connect 57 0 59 3;
#X connect 60 0 62 0;
#X connect 61 0 62 0;
#X connect 62 0 63 0;
#X connect 63 0 64 0;
#X connect 63 0 64 1;
#X connect 64 0 56 0;
#X connect 65 0 66 0;
#X connect 66 0 67 0;
#X connect 66 0 67 1;
#X connect 67 0 57 0;
#X connect 68 0 65 0;
#X connect 69 0 65 0;
#X connect 71 0 58 0;
#X connect 72 0 73 0;
#X connect 73 0 77 0;
#X connect 73 0 69 0;
#X connect 73 0 61 0;
#X connect 73 0 85 0;
#X connect 73 0 248 0;
#X connect 74 0 75 0;
#X connect 75 0 76 0;
#X connect 75 0 76 1;
#X connect 76 0 71 0;
#X connect 77 0 74 0;
#X connect 78 0 74 0;
#X connect 79 0 72 0;
#X connect 79 0 72 1;
#X connect 80 0 49 0;
#X connect 81 0 82 0;
#X connect 81 0 82 1;
#X connect 82 0 83 0;
#X connect 83 0 84 0;
#X connect 83 0 61 0;
#X connect 83 0 69 0;
#X connect 83 0 78 0;
#X connect 83 0 248 0;
#X connect 84 0 86 0;
#X connect 85 0 86 0;
#X connect 86 0 87 0;
#X connect 87 0 88 0;
#X connect 87 0 88 1;
#X connect 88 0 89 0;
#X connect 89 0 5 0;
#X connect 89 0 90 0;
#X connect 90 0 91 0;
#X connect 91 0 7 0;
#X connect 93 0 94 0;
#X connect 93 0 94 1;
#X connect 94 0 95 0;
#X connect 95 0 96 0;
#X connect 96 0 111 1;
#X connect 97 0 98 0;
#X connect 98 0 99 0;
#X connect 99 0 105 1;
#X connect 100 0 99 0;
#X connect 101 0 102 0;
#X connect 102 0 103 0;
#X connect 103 0 105 0;
#X connect 104 0 103 0;
#X connect 105 0 106 0;
#X connect 106 0 107 0;
#X connect 107 0 108 0;
#X connect 107 0 108 1;
#X connect 108 0 109 0;
#X connect 109 0 110 0;
#X connect 110 0 111 0;
#X connect 111 0 112 0;
#X connect 112 0 113 0;
#X connect 113 0 119 0;
#X connect 113 0 119 1;
#X connect 114 0 101 0;
#X connect 114 0 101 1;
#X connect 115 0 97 0;
#X connect 115 0 97 1;
#X connect 116 0 96 0;
#X connect 117 0 112 0;
#X connect 117 0 110 0;
#X connect 117 0 106 0;
#X connect 118 0 38 0;
#X connect 118 0 40 0;
#X connect 118 0 42 0;
#X connect 118 0 44 0;
#X connect 118 0 46 0;
#X connect 119 0 26 0;
#X connect 119 0 36 0;
#X connect 119 0 0 0;
#X connect 119 0 234 0;
#X connect 120 0 114 0;
#X connect 120 0 115 0;
#X connect 121 0 120 0;
#X connect 121 1 93 0;
#X connect 122 0 145 0;
#X connect 122 0 146 0;
#X connect 122 0 124 0;
#X connect 123 0 148 0;
#X connect 123 0 131 0;
#X connect 123 0 135 0;
#X connect 123 0 147 0;
#X connect 124 0 125 0;
#X connect 124 0 125 1;
#X connect 125 0 126 0;
#X connect 126 0 127 0;
#X connect 127 0 142 1;
#X connect 128 0 129 0;
#X connect 129 0 130 0;
#X connect 130 0 136 1;
#X connect 131 0 130 0;
#X connect 132 0 133 0;
#X connect 133 0 134 0;
#X connect 134 0 136 0;
#X connect 135 0 134 0;
#X connect 136 0 137 0;
#X connect 137 0 138 0;
#X connect 138 0 139 0;
#X connect 138 0 139 1;
#X connect 139 0 140 0;
#X connect 140 0 141 0;
#X connect 141 0 142 0;
#X connect 142 0 143 0;
#X connect 143 0 144 0;
#X connect 144 0 149 0;
#X connect 144 0 149 1;
#X connect 145 0 132 0;
#X connect 145 0 132 1;
#X connect 146 0 128 0;
#X connect 146 0 128 1;
#X connect 147 0 127 0;
#X connect 148 0 143 0;
#X connect 148 0 141 0;
#X connect 148 0 137 0;
#X connect 149 0 123 0;
#X connect 149 0 3 0;
#X connect 149 0 21 0;
#X connect 149 0 17 0;
#X connect 149 0 236 0;
#X connect 150 0 173 0;
#X connect 150 0 174 0;
#X connect 150 0 152 0;
#X connect 151 0 176 0;
#X connect 151 0 159 0;
#X connect 151 0 163 0;
#X connect 151 0 175 0;
#X connect 152 0 153 0;
#X connect 152 0 153 1;
#X connect 153 0 154 0;
#X connect 154 0 155 0;
#X connect 155 0 170 1;
#X connect 156 0 157 0;
#X connect 157 0 158 0;
#X connect 158 0 164 1;
#X connect 159 0 158 0;
#X connect 160 0 161 0;
#X connect 161 0 162 0;
#X connect 162 0 164 0;
#X connect 163 0 162 0;
#X connect 164 0 165 0;
#X connect 165 0 166 0;
#X connect 166 0 167 0;
#X connect 166 0 167 1;
#X connect 167 0 168 0;
#X connect 168 0 169 0;
#X connect 169 0 170 0;
#X connect 170 0 171 0;
#X connect 171 0 172 0;
#X connect 172 0 177 0;
#X connect 172 0 177 1;
#X connect 173 0 160 0;
#X connect 173 0 160 1;
#X connect 174 0 156 0;
#X connect 174 0 156 1;
#X connect 175 0 155 0;
#X connect 176 0 171 0;
#X connect 176 0 169 0;
#X connect 176 0 165 0;
#X connect 177 0 151 0;
#X connect 177 0 22 0;
#X connect 177 0 1 0;
#X connect 177 0 235 0;
#X connect 178 0 201 0;
#X connect 178 0 202 0;
#X connect 178 0 180 0;
#X connect 179 0 204 0;
#X connect 179 0 187 0;
#X connect 179 0 191 0;
#X connect 179 0 203 0;
#X connect 180 0 181 0;
#X connect 180 0 181 1;
#X connect 181 0 182 0;
#X connect 182 0 183 0;
#X connect 183 0 198 1;
#X connect 184 0 185 0;
#X connect 185 0 186 0;
#X connect 186 0 192 1;
#X connect 187 0 186 0;
#X connect 188 0 189 0;
#X connect 189 0 190 0;
#X connect 190 0 192 0;
#X connect 191 0 190 0;
#X connect 192 0 193 0;
#X connect 193 0 194 0;
#X connect 194 0 195 0;
#X connect 194 0 195 1;
#X connect 195 0 196 0;
#X connect 196 0 197 0;
#X connect 197 0 198 0;
#X connect 198 0 199 0;
#X connect 199 0 200 0;
#X connect 200 0 205 0;
#X connect 200 0 205 1;
#X connect 201 0 188 0;
#X connect 201 0 188 1;
#X connect 202 0 184 0;
#X connect 202 0 184 1;
#X connect 203 0 183 0;
#X connect 204 0 199 0;
#X connect 204 0 197 0;
#X connect 204 0 193 0;
#X connect 205 0 179 0;
#X connect 205 0 18 0;
#X connect 205 0 11 0;
#X connect 205 0 2 0;
#X connect 205 0 237 0;
#X connect 206 0 229 0;
#X connect 206 0 230 0;
#X connect 206 0 208 0;
#X connect 207 0 232 0;
#X connect 207 0 215 0;
#X connect 207 0 219 0;
#X connect 207 0 231 0;
#X connect 208 0 209 0;
#X connect 208 0 209 1;
#X connect 209 0 210 0;
#X connect 210 0 211 0;
#X connect 211 0 226 1;
#X connect 212 0 213 0;
#X connect 213 0 214 0;
#X connect 214 0 220 1;
#X connect 215 0 214 0;
#X connect 216 0 217 0;
#X connect 217 0 218 0;
#X connect 218 0 220 0;
#X connect 219 0 218 0;
#X connect 220 0 221 0;
#X connect 221 0 222 0;
#X connect 222 0 223 0;
#X connect 222 0 223 1;
#X connect 223 0 224 0;
#X connect 224 0 225 0;
#X connect 225 0 226 0;
#X connect 226 0 227 0;
#X connect 227 0 228 0;
#X connect 228 0 233 0;
#X connect 228 0 233 1;
#X connect 229 0 216 0;
#X connect 229 0 216 1;
#X connect 230 0 212 0;
#X connect 230 0 212 1;
#X connect 231 0 211 0;
#X connect 232 0 227 0;
#X connect 232 0 225 0;
#X connect 232 0 221 0;
#X connect 233 0 207 0;
#X connect 233 0 4 0;
#X connect 233 0 14 0;
#X connect 233 0 10 0;
#X connect 233 0 238 0;
#X connect 234 0 239 0;
#X connect 235 0 239 0;
#X connect 236 0 239 0;
#X connect 237 0 239 0;
#X connect 238 0 239 0;
#X connect 239 0 240 0;
#X connect 240 0 70 1;
#X connect 240 0 59 4;
#X connect 240 0 58 1;
#X connect 240 0 249 1;
#X connect 241 0 249 0;
#X connect 242 0 243 0;
#X connect 243 0 247 0;
#X connect 243 0 85 0;
#X connect 243 0 61 0;
#X connect 243 0 69 0;
#X connect 243 0 78 0;
#X connect 244 0 245 0;
#X connect 245 0 246 0;
#X connect 245 0 246 1;
#X connect 246 0 241 0;
#X connect 247 0 244 0;
#X connect 248 0 244 0;
#X connect 250 0 242 0;
#X connect 250 0 242 1;
#X restore 435 1870 pd fiducialDraw;
#X text -135 36 caracteristique de dessin;
#N canvas 0 22 450 300 dessinPlatine 0;
#X obj -130 56 gemhead 50;
#X obj -128 167 pix_image platine.jpg;
#X obj -127 214 pix_texture;
#X obj -128 128 scaleXYZ 1.7 1.2 1;
#X obj -128 87 translateXYZ -4 2.8 0;
#X obj -126 256 square;
#X connect 0 0 4 0;
#X connect 1 0 2 0;
#X connect 2 0 5 0;
#X connect 3 0 1 0;
#X connect 4 0 3 0;
#X restore -215 192 pd dessinPlatine;
#N canvas 0 22 450 300 dessinVynil 0;
#X obj 22 22 gemhead 51;
#X obj 22 162 pix_image vynil.jpg;
#X obj 23 188 pix_texture;
#X obj 20 106 scaleXYZ 0.9 0.9 0.9;
#X obj 30 232 circle;
#X obj 23 54 translateXYZ -4.3 2.8 0;
#X connect 0 0 5 0;
#X connect 1 0 2 0;
#X connect 2 0 4 0;
#X connect 3 0 1 0;
#X connect 5 0 3 0;
#X restore -214 217 pd dessinVynil;
#X text -214 152 permet de dessiner la ou on place les marqueurs;
#X text -159 290 pour avoir un rendu OpenGL plus realiste;
#X text 199 200 permet d'ouvrir la fenetre de visualisation;
#X text 294 1742 pour generer les sons et modifier la sphere qui tourne
;
#X text 504 464 pour traiter x et y en meme temps;
#X text 382 1076 permet de gerer le placement des marqueurs sur la
fausse platine;
#X text 361 852 on regarde id marqueur on desine un carre d'une certaine
couleur sur la fausse platine.;
#X obj 1518 821 == 4;
#X obj 1300 817 == 2;
#X obj 1403 817 == 3;
#X obj 1196 856 spigot;
#X obj 1270 857 spigot;
#X obj 1368 858 spigot;
#X obj 1485 860 spigot;
#X obj 1215 934 unpack f f;
#X obj 1289 934 unpack f f;
#X obj 1362 933 unpack f f;
#X obj 1442 929 unpack f f;
#X obj 1355 1340 t b f;
#X obj 1403 1368 t b f;
#X obj 1430 1401 t b f;
#X obj 1324 1462 pack f f f f f f f f;
#X floatatom 1233 1258 5 0 0 0 - - -;
#X floatatom 1273 1259 5 0 0 0 - - -;
#X floatatom 1321 1261 5 0 0 0 - - -;
#X floatatom 1355 1261 5 0 0 0 - - -;
#X floatatom 1404 1262 5 0 0 0 - - -;
#X floatatom 1439 1261 5 0 0 0 - - -;
#X floatatom 1490 1261 5 0 0 0 - - -;
#X floatatom 1527 1262 5 0 0 0 - - -;
#X obj 1213 900 spigot;
#X obj 1251 1229 tgl 15 0 empty empty empty 17 7 0 10 -262144 -1 -1
0 1;
#X obj 1292 890 spigot;
#X obj 1378 898 spigot;
#X obj 1463 893 spigot;
#X obj 1178 1122 bng 15 250 50 0 empty empty empty 17 7 0 10 -262144
-1 -1;
#X obj 1117 1092 spigot;
#X obj 1157 1062 tgl 15 0 empty empty empty 17 7 0 10 -262144 -1 -1
0 1;
#X obj 1335 1234 tgl 15 0 empty empty empty 17 7 0 10 -262144 -1 -1
0 1;
#X obj 1415 1232 tgl 15 0 empty empty empty 17 7 0 10 -262144 -1 -1
0 1;
#X obj 1508 1231 tgl 15 0 empty empty empty 17 7 0 10 -262144 -1 -1
0 1;
#X obj 408 1263 +;
#X obj 422 1196 bng 15 250 50 0 empty empty empty 17 7 0 10 -262144
-1 -1;
#X obj 476 1231 +;
#X obj 501 1182 bng 15 250 50 0 empty empty empty 17 7 0 10 -262144
-1 -1;
#X msg 421 1223 -4.3;
#X msg 504 1205 2.75;
#X obj 422 1355 pack f f f;
#N canvas 0 22 1349 669 TranslateMarqueur 0;
#X obj 1330 32 inlet 4points;
#X obj 1427 81 unpack f f f f f f f f;
#X obj 1417 159 t b f;
#X obj 1465 187 t b f;
#X obj 1492 220 t b f;
#X obj 1384 257 pack f f f f f f f f;
#X obj 254 55 inlet coordXY;
#X obj 447 795 outlet Mapped;
#X obj 766 799 outlet error;
#X text 621 209 MATRIX A;
#X obj 649 273 t a a;
#X text 788 245 MATRIX B;
#X obj 676 210 t a a b;
#X msg 493 450 \$3 \$4 \$5;
#X msg 574 510 \$6 \$7 \$8;
#X msg 742 495 \$9 \$10;
#X obj 445 357 t a a a;
#X obj 427 619 *;
#X obj 487 621 *;
#X obj 396 503 expr ($f3*$f1)+($f4*$f2)+$f5;
#X obj 492 558 expr ($f3*$f1)+($f4*$f2)+$f5;
#X obj 699 557 expr 1/(($f1*$f3)+($f2*$f4)+1);
#X obj 436 641 pack f f;
#N canvas 142 22 844 578 theory/explanations/sources 0;
#X text 106 332 l=(A A) A B;
#X text 130 325 T -1 T;
#X text 47 157 l=;
#X text 68 116 a;
#X text 67 127 b;
#X text 67 139 c;
#X text 68 152 d;
#X text 67 163 e;
#X text 69 174 f;
#X text 68 183 g;
#X text 70 195 h;
#X text 143 158 B=;
#X text 161 119 X1;
#X text 161 132 Y1;
#X text 162 143 X2;
#X text 162 156 Y2;
#X text 162 170 X3;
#X text 163 183 Y3;
#X text 164 194 X4;
#X text 164 203 Y4;
#X text 122 56 Al=B;
#X text 400 260 B=;
#X text 471 245 1;
#X text 472 283 1;
#X text 472 296 1;
#X text 475 307 1;
#X text 652 258 A=;
#X text 417 216 X1;
#X text 417 229 Y1;
#X text 418 240 X2;
#X text 418 253 Y2;
#X text 418 267 X3;
#X text 419 280 Y3;
#X text 417 293 X4;
#X text 418 309 Y4;
#X text 679 237 x2 y2 1 0 0 0 -x2 -y2;
#X text 678 284 0 0 0 x3 y3 1 -x3 -y3;
#X text 679 297 x4 y4 1 0 0 0 -x4 -y4;
#X text 679 313 0 0 0 x4 y4 1 -x4 -y4;
#X text 466 218 -1;
#X text 468 233 -1;
#X text 468 256 -1;
#X text 466 266 -1;
#X text 678 204 x1 y1 1 0 0 0 x1 y1;
#X text 679 221 0 0 0 x1 y1 1 x1 y1;
#X text 678 253 0 0 0 x2 y2 1 x2 y2;
#X text 678 268 x3 y3 1 0 0 0 x3 y3;
#X text 21 -27 Transposition from http://alumni.media.mit.edu/~cwren/interpolator/
;
#X text 43 29 We have to find the vector l that meets the equation
:;
#X text 38 90 where;
#X text 43 235 B contains the coords of 4 reference points in new system
;
#X text 41 257 If we choose 4 points (-1 \, -1) (1 \, -1) (-1 \, 1)
(1 \, 1) \, we get;
#X text 445 261 =;
#X text 233 148 (Matrix A is as defined in http://alumni.media.mit.edu/~cwren/interpolator/)
;
#X text 514 258 and we can simplify A:;
#X text 451 -6 x y : coords given by input device (example : wiimote)
;
#X text 455 18 X Y : coords mapped in new system;
#X text 44 383 When l is found \, we can easily compute new coords
\, for any point :;
#X text 60 425 ax+by+c;
#X text 45 430 X=________;
#X text 60 443 gx+hy+1;
#X text 190 443 gx+hy+1;
#X text 175 430 Y=________;
#X text 190 425 dx+ey+f;
#X restore 420 151 pd theory/explanations/sources;
#X text 409 523 ax+by+c;
#X text 504 575 dx+ey+f;
#X text 720 577 1/(gx+hy+1);
#X text 414 632 X;
#X text 493 637 Y;
#X text 690 437 l=(A A) A B;
#X text 714 430 T -1 T;
#X obj 1078 90 unpack f f f f f f f f;
#X obj 1011 249 pack f f f f f f f f f f f f f f f f;
#X obj 1229 192 * -1;
#X obj 1201 192 * -1;
#X obj 1162 189 * -1;
#X obj 1134 189 * -1;
#X obj 1232 150 * -1;
#X obj 1196 150 * -1;
#X obj 1157 147 * -1;
#X obj 1129 147 * -1;
#X msg 682 135 matrix 8 8 \$1 \$2 1 0 0 0 \$1 \$2 0 0 0 \$1 \$2 1 \$1
\$2 \$3 \$4 1 0 0 0 \$11 \$12 0 0 0 \$3 \$4 1 \$3 \$4 \$5 \$6 1 0 0
0 \$5 \$6 0 0 0 \$5 \$6 1 \$13 \$14 \$7 \$8 1 0 0 0 \$15 \$16 0 0 0
\$7 \$8 1 \$15 \$16;
#X obj 491 470 unpack f f f;
#X obj 570 537 unpack f f f;
#X obj 795 519 unpack f f;
#X msg 789 268 matrix 8 1 -1 -1 1 -1 -1 1 1 1;
#X floatatom 1291 334 5 0 0 0 - - -;
#X text 1268 331 X;
#X floatatom 1327 334 5 0 0 0 - - -;
#X floatatom 1375 336 5 0 0 0 - - -;
#X floatatom 1409 336 5 0 0 0 - - -;
#X floatatom 1458 337 5 0 0 0 - - -;
#X floatatom 1493 336 5 0 0 0 - - -;
#X floatatom 1544 336 5 0 0 0 - - -;
#X floatatom 1581 337 5 0 0 0 - - -;
#X floatatom 488 710 5 0 0 0 - - -;
#X text 465 707 X;
#X floatatom 524 710 5 0 0 0 - - -;
#X obj 424 114 import iemmatrix;
#X obj 621 189 iemmatrix/matrix;
#X obj 636 242 iemmatrix/mtx_transpose;
#X obj 648 297 iemmatrix/mtx_mul;
#X obj 642 323 iemmatrix/mtx_pinverse;
#X obj 633 361 iemmatrix/mtx_mul;
#X obj 633 399 iemmatrix/mtx_mul;
#X connect 0 0 1 0;
#X connect 1 0 5 0;
#X connect 1 0 46 0;
#X connect 1 1 5 1;
#X connect 1 1 48 0;
#X connect 1 2 2 0;
#X connect 1 2 49 0;
#X connect 1 3 5 3;
#X connect 1 3 50 0;
#X connect 1 4 3 0;
#X connect 1 4 51 0;
#X connect 1 5 5 5;
#X connect 1 5 52 0;
#X connect 1 6 4 0;
#X connect 1 6 53 0;
#X connect 1 7 5 7;
#X connect 1 7 54 0;
#X connect 2 0 5 0;
#X connect 2 1 5 2;
#X connect 3 0 5 0;
#X connect 3 1 5 4;
#X connect 4 0 5 0;
#X connect 4 1 5 6;
#X connect 5 0 31 0;
#X connect 6 0 16 0;
#X connect 10 0 61 0;
#X connect 10 1 63 1;
#X connect 12 0 60 0;
#X connect 12 1 61 1;
#X connect 12 2 45 0;
#X connect 13 0 42 0;
#X connect 14 0 43 0;
#X connect 15 0 44 0;
#X connect 16 0 19 0;
#X connect 16 1 20 0;
#X connect 16 2 21 0;
#X connect 17 0 22 0;
#X connect 17 0 55 0;
#X connect 18 0 22 1;
#X connect 18 0 57 0;
#X connect 19 0 17 0;
#X connect 20 0 18 0;
#X connect 21 0 17 1;
#X connect 21 0 18 1;
#X connect 22 0 7 0;
#X connect 31 0 40 0;
#X connect 31 0 32 0;
#X connect 31 1 39 0;
#X connect 31 1 32 1;
#X connect 31 2 38 0;
#X connect 31 2 32 2;
#X connect 31 3 37 0;
#X connect 31 3 32 3;
#X connect 31 4 36 0;
#X connect 31 4 32 4;
#X connect 31 5 35 0;
#X connect 31 5 32 5;
#X connect 31 6 34 0;
#X connect 31 6 32 6;
#X connect 31 7 33 0;
#X connect 31 7 32 7;
#X connect 32 0 41 0;
#X connect 33 0 32 15;
#X connect 34 0 32 14;
#X connect 35 0 32 13;
#X connect 36 0 32 12;
#X connect 37 0 32 11;
#X connect 38 0 32 10;
#X connect 39 0 32 9;
#X connect 40 0 32 8;
#X connect 41 0 59 0;
#X connect 42 0 19 2;
#X connect 42 1 19 3;
#X connect 42 2 19 4;
#X connect 43 0 20 2;
#X connect 43 1 20 3;
#X connect 43 2 20 4;
#X connect 44 0 21 2;
#X connect 44 1 21 3;
#X connect 45 0 64 1;
#X connect 59 0 12 0;
#X connect 60 0 10 0;
#X connect 61 0 62 0;
#X connect 62 0 63 0;
#X connect 62 1 8 0;
#X connect 63 0 64 0;
#X connect 64 0 13 0;
#X connect 64 0 14 0;
#X connect 64 0 15 0;
#X restore 677 1149 pd TranslateMarqueur;
#X obj 700 1175 unpack f f;
#X floatatom 697 1308 5 0 0 0 - - -;
#X floatatom 748 1305 5 0 0 0 - - -;
#X obj 703 1274 +;
#X obj 717 1207 bng 15 250 50 0 empty empty empty 17 7 0 10 -262144
-1 -1;
#X obj 771 1242 +;
#X obj 796 1193 bng 15 250 50 0 empty empty empty 17 7 0 10 -262144
-1 -1;
#X msg 716 1234 -4.3;
#X msg 799 1216 2.75;
#X obj 717 1366 pack f f f;
#N canvas 0 22 1349 669 TranslateMarqueur 0;
#X obj 1330 32 inlet 4points;
#X obj 1427 81 unpack f f f f f f f f;
#X obj 1417 159 t b f;
#X obj 1465 187 t b f;
#X obj 1492 220 t b f;
#X obj 1384 257 pack f f f f f f f f;
#X obj 254 55 inlet coordXY;
#X obj 447 795 outlet Mapped;
#X obj 766 799 outlet error;
#X text 621 209 MATRIX A;
#X obj 649 273 t a a;
#X text 788 245 MATRIX B;
#X obj 676 210 t a a b;
#X msg 493 450 \$3 \$4 \$5;
#X msg 574 510 \$6 \$7 \$8;
#X msg 742 495 \$9 \$10;
#X obj 445 357 t a a a;
#X obj 427 619 *;
#X obj 487 621 *;
#X obj 396 503 expr ($f3*$f1)+($f4*$f2)+$f5;
#X obj 492 558 expr ($f3*$f1)+($f4*$f2)+$f5;
#X obj 699 557 expr 1/(($f1*$f3)+($f2*$f4)+1);
#X obj 436 641 pack f f;
#N canvas 142 22 844 578 theory/explanations/sources 0;
#X text 106 332 l=(A A) A B;
#X text 130 325 T -1 T;
#X text 47 157 l=;
#X text 68 116 a;
#X text 67 127 b;
#X text 67 139 c;
#X text 68 152 d;
#X text 67 163 e;
#X text 69 174 f;
#X text 68 183 g;
#X text 70 195 h;
#X text 143 158 B=;
#X text 161 119 X1;
#X text 161 132 Y1;
#X text 162 143 X2;
#X text 162 156 Y2;
#X text 162 170 X3;
#X text 163 183 Y3;
#X text 164 194 X4;
#X text 164 203 Y4;
#X text 122 56 Al=B;
#X text 400 260 B=;
#X text 471 245 1;
#X text 472 283 1;
#X text 472 296 1;
#X text 475 307 1;
#X text 652 258 A=;
#X text 417 216 X1;
#X text 417 229 Y1;
#X text 418 240 X2;
#X text 418 253 Y2;
#X text 418 267 X3;
#X text 419 280 Y3;
#X text 417 293 X4;
#X text 418 309 Y4;
#X text 679 237 x2 y2 1 0 0 0 -x2 -y2;
#X text 678 284 0 0 0 x3 y3 1 -x3 -y3;
#X text 679 297 x4 y4 1 0 0 0 -x4 -y4;
#X text 679 313 0 0 0 x4 y4 1 -x4 -y4;
#X text 466 218 -1;
#X text 468 233 -1;
#X text 468 256 -1;
#X text 466 266 -1;
#X text 678 204 x1 y1 1 0 0 0 x1 y1;
#X text 679 221 0 0 0 x1 y1 1 x1 y1;
#X text 678 253 0 0 0 x2 y2 1 x2 y2;
#X text 678 268 x3 y3 1 0 0 0 x3 y3;
#X text 21 -27 Transposition from http://alumni.media.mit.edu/~cwren/interpolator/
;
#X text 43 29 We have to find the vector l that meets the equation
:;
#X text 38 90 where;
#X text 43 235 B contains the coords of 4 reference points in new system
;
#X text 41 257 If we choose 4 points (-1 \, -1) (1 \, -1) (-1 \, 1)
(1 \, 1) \, we get;
#X text 445 261 =;
#X text 233 148 (Matrix A is as defined in http://alumni.media.mit.edu/~cwren/interpolator/)
;
#X text 514 258 and we can simplify A:;
#X text 451 -6 x y : coords given by input device (example : wiimote)
;
#X text 455 18 X Y : coords mapped in new system;
#X text 44 383 When l is found \, we can easily compute new coords
\, for any point :;
#X text 60 425 ax+by+c;
#X text 45 430 X=________;
#X text 60 443 gx+hy+1;
#X text 190 443 gx+hy+1;
#X text 175 430 Y=________;
#X text 190 425 dx+ey+f;
#X restore 420 151 pd theory/explanations/sources;
#X text 409 523 ax+by+c;
#X text 504 575 dx+ey+f;
#X text 720 577 1/(gx+hy+1);
#X text 414 632 X;
#X text 493 637 Y;
#X text 690 437 l=(A A) A B;
#X text 714 430 T -1 T;
#X obj 1078 90 unpack f f f f f f f f;
#X obj 1011 249 pack f f f f f f f f f f f f f f f f;
#X obj 1229 192 * -1;
#X obj 1201 192 * -1;
#X obj 1162 189 * -1;
#X obj 1134 189 * -1;
#X obj 1232 150 * -1;
#X obj 1196 150 * -1;
#X obj 1157 147 * -1;
#X obj 1129 147 * -1;
#X msg 682 135 matrix 8 8 \$1 \$2 1 0 0 0 \$1 \$2 0 0 0 \$1 \$2 1 \$1
\$2 \$3 \$4 1 0 0 0 \$11 \$12 0 0 0 \$3 \$4 1 \$3 \$4 \$5 \$6 1 0 0
0 \$5 \$6 0 0 0 \$5 \$6 1 \$13 \$14 \$7 \$8 1 0 0 0 \$15 \$16 0 0 0
\$7 \$8 1 \$15 \$16;
#X obj 491 470 unpack f f f;
#X obj 570 537 unpack f f f;
#X obj 795 519 unpack f f;
#X msg 789 268 matrix 8 1 -1 -1 1 -1 -1 1 1 1;
#X floatatom 1291 334 5 0 0 0 - - -;
#X text 1268 331 X;
#X floatatom 1327 334 5 0 0 0 - - -;
#X floatatom 1375 336 5 0 0 0 - - -;
#X floatatom 1409 336 5 0 0 0 - - -;
#X floatatom 1458 337 5 0 0 0 - - -;
#X floatatom 1493 336 5 0 0 0 - - -;
#X floatatom 1544 336 5 0 0 0 - - -;
#X floatatom 1581 337 5 0 0 0 - - -;
#X floatatom 488 710 5 0 0 0 - - -;
#X text 465 707 X;
#X floatatom 524 710 5 0 0 0 - - -;
#X obj 424 114 import iemmatrix;
#X obj 621 189 iemmatrix/matrix;
#X obj 636 242 iemmatrix/mtx_transpose;
#X obj 648 297 iemmatrix/mtx_mul;
#X obj 642 323 iemmatrix/mtx_pinverse;
#X obj 633 361 iemmatrix/mtx_mul;
#X obj 633 399 iemmatrix/mtx_mul;
#X connect 0 0 1 0;
#X connect 1 0 5 0;
#X connect 1 0 46 0;
#X connect 1 1 5 1;
#X connect 1 1 48 0;
#X connect 1 2 2 0;
#X connect 1 2 49 0;
#X connect 1 3 5 3;
#X connect 1 3 50 0;
#X connect 1 4 3 0;
#X connect 1 4 51 0;
#X connect 1 5 5 5;
#X connect 1 5 52 0;
#X connect 1 6 4 0;
#X connect 1 6 53 0;
#X connect 1 7 5 7;
#X connect 1 7 54 0;
#X connect 2 0 5 0;
#X connect 2 1 5 2;
#X connect 3 0 5 0;
#X connect 3 1 5 4;
#X connect 4 0 5 0;
#X connect 4 1 5 6;
#X connect 5 0 31 0;
#X connect 6 0 16 0;
#X connect 10 0 61 0;
#X connect 10 1 63 1;
#X connect 12 0 60 0;
#X connect 12 1 61 1;
#X connect 12 2 45 0;
#X connect 13 0 42 0;
#X connect 14 0 43 0;
#X connect 15 0 44 0;
#X connect 16 0 19 0;
#X connect 16 1 20 0;
#X connect 16 2 21 0;
#X connect 17 0 22 0;
#X connect 17 0 55 0;
#X connect 18 0 22 1;
#X connect 18 0 57 0;
#X connect 19 0 17 0;
#X connect 20 0 18 0;
#X connect 21 0 17 1;
#X connect 21 0 18 1;
#X connect 22 0 7 0;
#X connect 31 0 40 0;
#X connect 31 0 32 0;
#X connect 31 1 39 0;
#X connect 31 1 32 1;
#X connect 31 2 38 0;
#X connect 31 2 32 2;
#X connect 31 3 37 0;
#X connect 31 3 32 3;
#X connect 31 4 36 0;
#X connect 31 4 32 4;
#X connect 31 5 35 0;
#X connect 31 5 32 5;
#X connect 31 6 34 0;
#X connect 31 6 32 6;
#X connect 31 7 33 0;
#X connect 31 7 32 7;
#X connect 32 0 41 0;
#X connect 33 0 32 15;
#X connect 34 0 32 14;
#X connect 35 0 32 13;
#X connect 36 0 32 12;
#X connect 37 0 32 11;
#X connect 38 0 32 10;
#X connect 39 0 32 9;
#X connect 40 0 32 8;
#X connect 41 0 59 0;
#X connect 42 0 19 2;
#X connect 42 1 19 3;
#X connect 42 2 19 4;
#X connect 43 0 20 2;
#X connect 43 1 20 3;
#X connect 43 2 20 4;
#X connect 44 0 21 2;
#X connect 44 1 21 3;
#X connect 45 0 64 1;
#X connect 59 0 12 0;
#X connect 60 0 10 0;
#X connect 61 0 62 0;
#X connect 62 0 63 0;
#X connect 62 1 8 0;
#X connect 63 0 64 0;
#X connect 64 0 13 0;
#X connect 64 0 14 0;
#X connect 64 0 15 0;
#X restore 980 1147 pd TranslateMarqueur;
#X obj 1003 1173 unpack f f;
#X floatatom 1000 1306 5 0 0 0 - - -;
#X floatatom 1051 1303 5 0 0 0 - - -;
#X obj 1006 1272 +;
#X obj 1020 1205 bng 15 250 50 0 empty empty empty 17 7 0 10 -262144
-1 -1;
#X obj 1074 1240 +;
#X obj 1099 1191 bng 15 250 50 0 empty empty empty 17 7 0 10 -262144
-1 -1;
#X msg 1019 1232 -4.3;
#X msg 1102 1214 2.75;
#X obj 1020 1364 pack f f f;
#N canvas 0 22 1349 669 TranslateMarqueur 0;
#X obj 1330 32 inlet 4points;
#X obj 1427 81 unpack f f f f f f f f;
#X obj 1417 159 t b f;
#X obj 1465 187 t b f;
#X obj 1492 220 t b f;
#X obj 1384 257 pack f f f f f f f f;
#X obj 254 55 inlet coordXY;
#X obj 447 795 outlet Mapped;
#X obj 766 799 outlet error;
#X text 621 209 MATRIX A;
#X obj 649 273 t a a;
#X text 788 245 MATRIX B;
#X obj 676 210 t a a b;
#X msg 493 450 \$3 \$4 \$5;
#X msg 574 510 \$6 \$7 \$8;
#X msg 742 495 \$9 \$10;
#X obj 445 357 t a a a;
#X obj 427 619 *;
#X obj 487 621 *;
#X obj 396 503 expr ($f3*$f1)+($f4*$f2)+$f5;
#X obj 492 558 expr ($f3*$f1)+($f4*$f2)+$f5;
#X obj 699 557 expr 1/(($f1*$f3)+($f2*$f4)+1);
#X obj 436 641 pack f f;
#N canvas 142 22 844 578 theory/explanations/sources 0;
#X text 106 332 l=(A A) A B;
#X text 130 325 T -1 T;
#X text 47 157 l=;
#X text 68 116 a;
#X text 67 127 b;
#X text 67 139 c;
#X text 68 152 d;
#X text 67 163 e;
#X text 69 174 f;
#X text 68 183 g;
#X text 70 195 h;
#X text 143 158 B=;
#X text 161 119 X1;
#X text 161 132 Y1;
#X text 162 143 X2;
#X text 162 156 Y2;
#X text 162 170 X3;
#X text 163 183 Y3;
#X text 164 194 X4;
#X text 164 203 Y4;
#X text 122 56 Al=B;
#X text 400 260 B=;
#X text 471 245 1;
#X text 472 283 1;
#X text 472 296 1;
#X text 475 307 1;
#X text 652 258 A=;
#X text 417 216 X1;
#X text 417 229 Y1;
#X text 418 240 X2;
#X text 418 253 Y2;
#X text 418 267 X3;
#X text 419 280 Y3;
#X text 417 293 X4;
#X text 418 309 Y4;
#X text 679 237 x2 y2 1 0 0 0 -x2 -y2;
#X text 678 284 0 0 0 x3 y3 1 -x3 -y3;
#X text 679 297 x4 y4 1 0 0 0 -x4 -y4;
#X text 679 313 0 0 0 x4 y4 1 -x4 -y4;
#X text 466 218 -1;
#X text 468 233 -1;
#X text 468 256 -1;
#X text 466 266 -1;
#X text 678 204 x1 y1 1 0 0 0 x1 y1;
#X text 679 221 0 0 0 x1 y1 1 x1 y1;
#X text 678 253 0 0 0 x2 y2 1 x2 y2;
#X text 678 268 x3 y3 1 0 0 0 x3 y3;
#X text 21 -27 Transposition from http://alumni.media.mit.edu/~cwren/interpolator/
;
#X text 43 29 We have to find the vector l that meets the equation
:;
#X text 38 90 where;
#X text 43 235 B contains the coords of 4 reference points in new system
;
#X text 41 257 If we choose 4 points (-1 \, -1) (1 \, -1) (-1 \, 1)
(1 \, 1) \, we get;
#X text 445 261 =;
#X text 233 148 (Matrix A is as defined in http://alumni.media.mit.edu/~cwren/interpolator/)
;
#X text 514 258 and we can simplify A:;
#X text 451 -6 x y : coords given by input device (example : wiimote)
;
#X text 455 18 X Y : coords mapped in new system;
#X text 44 383 When l is found \, we can easily compute new coords
\, for any point :;
#X text 60 425 ax+by+c;
#X text 45 430 X=________;
#X text 60 443 gx+hy+1;
#X text 190 443 gx+hy+1;
#X text 175 430 Y=________;
#X text 190 425 dx+ey+f;
#X restore 420 151 pd theory/explanations/sources;
#X text 409 523 ax+by+c;
#X text 504 575 dx+ey+f;
#X text 720 577 1/(gx+hy+1);
#X text 414 632 X;
#X text 493 637 Y;
#X text 690 437 l=(A A) A B;
#X text 714 430 T -1 T;
#X obj 1078 90 unpack f f f f f f f f;
#X obj 1011 249 pack f f f f f f f f f f f f f f f f;
#X obj 1229 192 * -1;
#X obj 1201 192 * -1;
#X obj 1162 189 * -1;
#X obj 1134 189 * -1;
#X obj 1232 150 * -1;
#X obj 1196 150 * -1;
#X obj 1157 147 * -1;
#X obj 1129 147 * -1;
#X msg 682 135 matrix 8 8 \$1 \$2 1 0 0 0 \$1 \$2 0 0 0 \$1 \$2 1 \$1
\$2 \$3 \$4 1 0 0 0 \$11 \$12 0 0 0 \$3 \$4 1 \$3 \$4 \$5 \$6 1 0 0
0 \$5 \$6 0 0 0 \$5 \$6 1 \$13 \$14 \$7 \$8 1 0 0 0 \$15 \$16 0 0 0
\$7 \$8 1 \$15 \$16;
#X obj 491 470 unpack f f f;
#X obj 570 537 unpack f f f;
#X obj 795 519 unpack f f;
#X msg 789 268 matrix 8 1 -1 -1 1 -1 -1 1 1 1;
#X floatatom 1291 334 5 0 0 0 - - -;
#X text 1268 331 X;
#X floatatom 1327 334 5 0 0 0 - - -;
#X floatatom 1375 336 5 0 0 0 - - -;
#X floatatom 1409 336 5 0 0 0 - - -;
#X floatatom 1458 337 5 0 0 0 - - -;
#X floatatom 1493 336 5 0 0 0 - - -;
#X floatatom 1544 336 5 0 0 0 - - -;
#X floatatom 1581 337 5 0 0 0 - - -;
#X floatatom 488 710 5 0 0 0 - - -;
#X text 465 707 X;
#X floatatom 524 710 5 0 0 0 - - -;
#X obj 424 114 import iemmatrix;
#X obj 621 189 iemmatrix/matrix;
#X obj 636 242 iemmatrix/mtx_transpose;
#X obj 648 297 iemmatrix/mtx_mul;
#X obj 642 323 iemmatrix/mtx_pinverse;
#X obj 633 361 iemmatrix/mtx_mul;
#X obj 633 399 iemmatrix/mtx_mul;
#X connect 0 0 1 0;
#X connect 1 0 5 0;
#X connect 1 0 46 0;
#X connect 1 1 5 1;
#X connect 1 1 48 0;
#X connect 1 2 2 0;
#X connect 1 2 49 0;
#X connect 1 3 5 3;
#X connect 1 3 50 0;
#X connect 1 4 3 0;
#X connect 1 4 51 0;
#X connect 1 5 5 5;
#X connect 1 5 52 0;
#X connect 1 6 4 0;
#X connect 1 6 53 0;
#X connect 1 7 5 7;
#X connect 1 7 54 0;
#X connect 2 0 5 0;
#X connect 2 1 5 2;
#X connect 3 0 5 0;
#X connect 3 1 5 4;
#X connect 4 0 5 0;
#X connect 4 1 5 6;
#X connect 5 0 31 0;
#X connect 6 0 16 0;
#X connect 10 0 61 0;
#X connect 10 1 63 1;
#X connect 12 0 60 0;
#X connect 12 1 61 1;
#X connect 12 2 45 0;
#X connect 13 0 42 0;
#X connect 14 0 43 0;
#X connect 15 0 44 0;
#X connect 16 0 19 0;
#X connect 16 1 20 0;
#X connect 16 2 21 0;
#X connect 17 0 22 0;
#X connect 17 0 55 0;
#X connect 18 0 22 1;
#X connect 18 0 57 0;
#X connect 19 0 17 0;
#X connect 20 0 18 0;
#X connect 21 0 17 1;
#X connect 21 0 18 1;
#X connect 22 0 7 0;
#X connect 31 0 40 0;
#X connect 31 0 32 0;
#X connect 31 1 39 0;
#X connect 31 1 32 1;
#X connect 31 2 38 0;
#X connect 31 2 32 2;
#X connect 31 3 37 0;
#X connect 31 3 32 3;
#X connect 31 4 36 0;
#X connect 31 4 32 4;
#X connect 31 5 35 0;
#X connect 31 5 32 5;
#X connect 31 6 34 0;
#X connect 31 6 32 6;
#X connect 31 7 33 0;
#X connect 31 7 32 7;
#X connect 32 0 41 0;
#X connect 33 0 32 15;
#X connect 34 0 32 14;
#X connect 35 0 32 13;
#X connect 36 0 32 12;
#X connect 37 0 32 11;
#X connect 38 0 32 10;
#X connect 39 0 32 9;
#X connect 40 0 32 8;
#X connect 41 0 59 0;
#X connect 42 0 19 2;
#X connect 42 1 19 3;
#X connect 42 2 19 4;
#X connect 43 0 20 2;
#X connect 43 1 20 3;
#X connect 43 2 20 4;
#X connect 44 0 21 2;
#X connect 44 1 21 3;
#X connect 45 0 64 1;
#X connect 59 0 12 0;
#X connect 60 0 10 0;
#X connect 61 0 62 0;
#X connect 62 0 63 0;
#X connect 62 1 8 0;
#X connect 63 0 64 0;
#X connect 64 0 13 0;
#X connect 64 0 14 0;
#X connect 64 0 15 0;
#X restore 71 1151 pd TranslateMarqueur;
#X obj 94 1177 unpack f f;
#X floatatom 91 1310 5 0 0 0 - - -;
#X floatatom 142 1307 5 0 0 0 - - -;
#X obj 97 1276 +;
#X obj 111 1209 bng 15 250 50 0 empty empty empty 17 7 0 10 -262144
-1 -1;
#X obj 165 1244 +;
#X obj 190 1195 bng 15 250 50 0 empty empty empty 17 7 0 10 -262144
-1 -1;
#X msg 110 1236 -4.3;
#X msg 193 1218 2.75;
#X obj 111 1368 pack f f f;
#X text 183 1286 comment;
#X obj -317 838 spigot;
#X obj -317 869 bng 15 250 50 0 empty empty empty 17 7 0 10 -262144
-1 -1;
#X obj -317 901 tgl 15 0 empty empty empty 17 7 0 10 -262144 -1 -1
0 1;
#X obj -315 1077 square;
#X obj -316 1006 translateXYZ;
#X obj -316 1037 scaleXYZ 0.05 0.05 0.05;
#X obj -317 974 color;
#X obj -317 942 gemhead 53;
#X msg -246 943 1 0 0;
#X obj -358 972 bng 15 250 50 0 empty empty empty 17 7 0 10 -262144
-1 -1;
#N canvas 0 22 1349 669 TranslateMarqueur 0;
#X obj 1330 32 inlet 4points;
#X obj 1427 81 unpack f f f f f f f f;
#X obj 1417 159 t b f;
#X obj 1465 187 t b f;
#X obj 1492 220 t b f;
#X obj 1384 257 pack f f f f f f f f;
#X obj 254 55 inlet coordXY;
#X obj 447 795 outlet Mapped;
#X obj 766 799 outlet error;
#X text 621 209 MATRIX A;
#X obj 649 273 t a a;
#X text 788 245 MATRIX B;
#X obj 676 210 t a a b;
#X msg 493 450 \$3 \$4 \$5;
#X msg 574 510 \$6 \$7 \$8;
#X msg 742 495 \$9 \$10;
#X obj 445 357 t a a a;
#X obj 427 619 *;
#X obj 487 621 *;
#X obj 396 503 expr ($f3*$f1)+($f4*$f2)+$f5;
#X obj 492 558 expr ($f3*$f1)+($f4*$f2)+$f5;
#X obj 699 557 expr 1/(($f1*$f3)+($f2*$f4)+1);
#X obj 436 641 pack f f;
#N canvas 142 22 844 578 theory/explanations/sources 0;
#X text 106 332 l=(A A) A B;
#X text 130 325 T -1 T;
#X text 47 157 l=;
#X text 68 116 a;
#X text 67 127 b;
#X text 67 139 c;
#X text 68 152 d;
#X text 67 163 e;
#X text 69 174 f;
#X text 68 183 g;
#X text 70 195 h;
#X text 143 158 B=;
#X text 161 119 X1;
#X text 161 132 Y1;
#X text 162 143 X2;
#X text 162 156 Y2;
#X text 162 170 X3;
#X text 163 183 Y3;
#X text 164 194 X4;
#X text 164 203 Y4;
#X text 122 56 Al=B;
#X text 400 260 B=;
#X text 471 245 1;
#X text 472 283 1;
#X text 472 296 1;
#X text 475 307 1;
#X text 652 258 A=;
#X text 417 216 X1;
#X text 417 229 Y1;
#X text 418 240 X2;
#X text 418 253 Y2;
#X text 418 267 X3;
#X text 419 280 Y3;
#X text 417 293 X4;
#X text 418 309 Y4;
#X text 679 237 x2 y2 1 0 0 0 -x2 -y2;
#X text 678 284 0 0 0 x3 y3 1 -x3 -y3;
#X text 679 297 x4 y4 1 0 0 0 -x4 -y4;
#X text 679 313 0 0 0 x4 y4 1 -x4 -y4;
#X text 466 218 -1;
#X text 468 233 -1;
#X text 468 256 -1;
#X text 466 266 -1;
#X text 678 204 x1 y1 1 0 0 0 x1 y1;
#X text 679 221 0 0 0 x1 y1 1 x1 y1;
#X text 678 253 0 0 0 x2 y2 1 x2 y2;
#X text 678 268 x3 y3 1 0 0 0 x3 y3;
#X text 21 -27 Transposition from http://alumni.media.mit.edu/~cwren/interpolator/
;
#X text 43 29 We have to find the vector l that meets the equation
:;
#X text 38 90 where;
#X text 43 235 B contains the coords of 4 reference points in new system
;
#X text 41 257 If we choose 4 points (-1 \, -1) (1 \, -1) (-1 \, 1)
(1 \, 1) \, we get;
#X text 445 261 =;
#X text 233 148 (Matrix A is as defined in http://alumni.media.mit.edu/~cwren/interpolator/)
;
#X text 514 258 and we can simplify A:;
#X text 451 -6 x y : coords given by input device (example : wiimote)
;
#X text 455 18 X Y : coords mapped in new system;
#X text 44 383 When l is found \, we can easily compute new coords
\, for any point :;
#X text 60 425 ax+by+c;
#X text 45 430 X=________;
#X text 60 443 gx+hy+1;
#X text 190 443 gx+hy+1;
#X text 175 430 Y=________;
#X text 190 425 dx+ey+f;
#X restore 420 151 pd theory/explanations/sources;
#X text 409 523 ax+by+c;
#X text 504 575 dx+ey+f;
#X text 720 577 1/(gx+hy+1);
#X text 414 632 X;
#X text 493 637 Y;
#X text 690 437 l=(A A) A B;
#X text 714 430 T -1 T;
#X obj 1078 90 unpack f f f f f f f f;
#X obj 1011 249 pack f f f f f f f f f f f f f f f f;
#X obj 1229 192 * -1;
#X obj 1201 192 * -1;
#X obj 1162 189 * -1;
#X obj 1134 189 * -1;
#X obj 1232 150 * -1;
#X obj 1196 150 * -1;
#X obj 1157 147 * -1;
#X obj 1129 147 * -1;
#X msg 682 135 matrix 8 8 \$1 \$2 1 0 0 0 \$1 \$2 0 0 0 \$1 \$2 1 \$1
\$2 \$3 \$4 1 0 0 0 \$11 \$12 0 0 0 \$3 \$4 1 \$3 \$4 \$5 \$6 1 0 0
0 \$5 \$6 0 0 0 \$5 \$6 1 \$13 \$14 \$7 \$8 1 0 0 0 \$15 \$16 0 0 0
\$7 \$8 1 \$15 \$16;
#X obj 491 470 unpack f f f;
#X obj 570 537 unpack f f f;
#X obj 795 519 unpack f f;
#X msg 789 268 matrix 8 1 -1 -1 1 -1 -1 1 1 1;
#X floatatom 1291 334 5 0 0 0 - - -;
#X text 1268 331 X;
#X floatatom 1327 334 5 0 0 0 - - -;
#X floatatom 1375 336 5 0 0 0 - - -;
#X floatatom 1409 336 5 0 0 0 - - -;
#X floatatom 1458 337 5 0 0 0 - - -;
#X floatatom 1493 336 5 0 0 0 - - -;
#X floatatom 1544 336 5 0 0 0 - - -;
#X floatatom 1581 337 5 0 0 0 - - -;
#X floatatom 488 710 5 0 0 0 - - -;
#X text 465 707 X;
#X floatatom 524 710 5 0 0 0 - - -;
#X obj 424 114 import iemmatrix;
#X obj 621 189 iemmatrix/matrix;
#X obj 636 242 iemmatrix/mtx_transpose;
#X obj 648 297 iemmatrix/mtx_mul;
#X obj 642 323 iemmatrix/mtx_pinverse;
#X obj 633 361 iemmatrix/mtx_mul;
#X obj 633 399 iemmatrix/mtx_mul;
#X connect 0 0 1 0;
#X connect 1 0 5 0;
#X connect 1 0 46 0;
#X connect 1 1 5 1;
#X connect 1 1 48 0;
#X connect 1 2 2 0;
#X connect 1 2 49 0;
#X connect 1 3 5 3;
#X connect 1 3 50 0;
#X connect 1 4 3 0;
#X connect 1 4 51 0;
#X connect 1 5 5 5;
#X connect 1 5 52 0;
#X connect 1 6 4 0;
#X connect 1 6 53 0;
#X connect 1 7 5 7;
#X connect 1 7 54 0;
#X connect 2 0 5 0;
#X connect 2 1 5 2;
#X connect 3 0 5 0;
#X connect 3 1 5 4;
#X connect 4 0 5 0;
#X connect 4 1 5 6;
#X connect 5 0 31 0;
#X connect 6 0 16 0;
#X connect 10 0 61 0;
#X connect 10 1 63 1;
#X connect 12 0 60 0;
#X connect 12 1 61 1;
#X connect 12 2 45 0;
#X connect 13 0 42 0;
#X connect 14 0 43 0;
#X connect 15 0 44 0;
#X connect 16 0 19 0;
#X connect 16 1 20 0;
#X connect 16 2 21 0;
#X connect 17 0 22 0;
#X connect 17 0 55 0;
#X connect 18 0 22 1;
#X connect 18 0 57 0;
#X connect 19 0 17 0;
#X connect 20 0 18 0;
#X connect 21 0 17 1;
#X connect 21 0 18 1;
#X connect 22 0 7 0;
#X connect 31 0 40 0;
#X connect 31 0 32 0;
#X connect 31 1 39 0;
#X connect 31 1 32 1;
#X connect 31 2 38 0;
#X connect 31 2 32 2;
#X connect 31 3 37 0;
#X connect 31 3 32 3;
#X connect 31 4 36 0;
#X connect 31 4 32 4;
#X connect 31 5 35 0;
#X connect 31 5 32 5;
#X connect 31 6 34 0;
#X connect 31 6 32 6;
#X connect 31 7 33 0;
#X connect 31 7 32 7;
#X connect 32 0 41 0;
#X connect 33 0 32 15;
#X connect 34 0 32 14;
#X connect 35 0 32 13;
#X connect 36 0 32 12;
#X connect 37 0 32 11;
#X connect 38 0 32 10;
#X connect 39 0 32 9;
#X connect 40 0 32 8;
#X connect 41 0 59 0;
#X connect 42 0 19 2;
#X connect 42 1 19 3;
#X connect 42 2 19 4;
#X connect 43 0 20 2;
#X connect 43 1 20 3;
#X connect 43 2 20 4;
#X connect 44 0 21 2;
#X connect 44 1 21 3;
#X connect 45 0 64 1;
#X connect 59 0 12 0;
#X connect 60 0 10 0;
#X connect 61 0 62 0;
#X connect 62 0 63 0;
#X connect 62 1 8 0;
#X connect 63 0 64 0;
#X connect 64 0 13 0;
#X connect 64 0 14 0;
#X connect 64 0 15 0;
#X restore -253 1141 pd TranslateMarqueur;
#X obj -230 1167 unpack f f;
#X floatatom -233 1300 5 0 0 0 - - -;
#X floatatom -182 1297 5 0 0 0 - - -;
#X obj -227 1266 +;
#X obj -213 1199 bng 15 250 50 0 empty empty empty 17 7 0 10 -262144
-1 -1;
#X obj -159 1234 +;
#X obj -134 1185 bng 15 250 50 0 empty empty empty 17 7 0 10 -262144
-1 -1;
#X msg -214 1226 -4.3;
#X msg -131 1208 2.75;
#X obj -213 1358 pack f f f;
#X text -141 1276 comment;
#X obj -284 789 == 6;
#X obj -33 798 == 7;
#X obj 260 793 == 8;
#X obj 595 798 == 9;
#X obj 922 807 == 10;
#X floatatom -153 1324 5 0 0 0 - - -;
#X floatatom 176 1331 5 0 0 0 - - -;
#X floatatom 487 1317 5 0 0 0 - - -;
#X floatatom 779 1328 5 0 0 0 - - -;
#X floatatom 1075 1328 5 0 0 0 - - -;
#X obj 655 1729 key;
#X floatatom 655 1762 5 0 0 0 - - -;
#X obj 655 1802 pack f;
#X obj 1234 815 == 0;
#X connect 0 0 1 0;
#X connect 1 0 2 0;
#X connect 2 0 4 0;
#X connect 2 1 5 0;
#X connect 2 2 3 0;
#X connect 3 1 33 0;
#X connect 3 2 36 0;
#X connect 3 3 37 0;
#X connect 7 0 6 0;
#X connect 8 0 6 0;
#X connect 9 0 6 0;
#X connect 10 0 6 0;
#X connect 11 0 6 0;
#X connect 13 0 6 0;
#X connect 14 0 17 0;
#X connect 15 0 17 0;
#X connect 16 0 17 0;
#X connect 18 0 19 0;
#X connect 20 0 6 0;
#X connect 21 0 24 0;
#X connect 21 0 40 0;
#X connect 21 0 50 0;
#X connect 21 0 59 0;
#X connect 21 0 84 0;
#X connect 21 0 85 0;
#X connect 21 0 86 0;
#X connect 21 0 87 0;
#X connect 21 0 156 0;
#X connect 22 0 23 0;
#X connect 23 0 115 0;
#X connect 23 0 116 0;
#X connect 23 1 35 0;
#X connect 23 1 117 0;
#X connect 23 1 118 0;
#X connect 24 0 25 0;
#X connect 24 0 144 0;
#X connect 25 0 26 0;
#X connect 25 0 32 0;
#X connect 26 0 31 0;
#X connect 28 0 29 0;
#X connect 29 0 27 0;
#X connect 29 0 38 0;
#X connect 30 0 28 0;
#X connect 31 0 30 0;
#X connect 32 0 30 1;
#X connect 33 0 82 0;
#X connect 33 0 83 0;
#X connect 33 0 81 0;
#X connect 33 0 178 0;
#X connect 33 0 179 0;
#X connect 33 0 180 0;
#X connect 33 0 181 0;
#X connect 33 0 182 0;
#X connect 33 0 185 0;
#X connect 33 0 184 0;
#X connect 33 0 183 0;
#X connect 33 0 186 0;
#X connect 33 0 187 0;
#X connect 33 0 191 0;
#X connect 34 0 44 1;
#X connect 34 0 121 0;
#X connect 35 0 44 2;
#X connect 35 0 121 1;
#X connect 36 0 21 0;
#X connect 37 0 21 1;
#X connect 38 0 26 0;
#X connect 40 0 22 0;
#X connect 40 0 41 0;
#X connect 41 0 42 0;
#X connect 41 0 49 0;
#X connect 42 0 47 0;
#X connect 44 0 45 0;
#X connect 45 0 43 0;
#X connect 45 0 48 0;
#X connect 46 0 44 0;
#X connect 47 0 46 0;
#X connect 48 0 42 0;
#X connect 49 0 46 1;
#X connect 50 0 51 0;
#X connect 50 0 122 0;
#X connect 51 0 52 0;
#X connect 51 0 68 0;
#X connect 52 0 57 0;
#X connect 54 0 55 0;
#X connect 55 0 53 0;
#X connect 55 0 58 0;
#X connect 56 0 54 0;
#X connect 57 0 56 0;
#X connect 58 0 52 0;
#X connect 59 0 60 0;
#X connect 59 0 133 0;
#X connect 60 0 61 0;
#X connect 60 0 69 0;
#X connect 61 0 66 0;
#X connect 63 0 64 0;
#X connect 64 0 62 0;
#X connect 64 0 67 0;
#X connect 65 0 63 0;
#X connect 66 0 65 0;
#X connect 67 0 61 0;
#X connect 68 0 56 1;
#X connect 69 0 65 1;
#X connect 81 0 87 1;
#X connect 82 0 85 1;
#X connect 83 0 86 1;
#X connect 84 0 104 0;
#X connect 85 0 106 0;
#X connect 86 0 107 0;
#X connect 87 0 108 0;
#X connect 88 0 96 0;
#X connect 88 1 97 0;
#X connect 89 0 98 0;
#X connect 89 1 99 0;
#X connect 90 0 100 0;
#X connect 90 1 101 0;
#X connect 91 0 102 0;
#X connect 91 1 103 0;
#X connect 92 0 95 0;
#X connect 92 1 95 2;
#X connect 93 0 95 0;
#X connect 93 1 95 4;
#X connect 94 0 95 0;
#X connect 94 1 95 6;
#X connect 95 0 110 0;
#X connect 96 0 95 0;
#X connect 97 0 95 1;
#X connect 98 0 92 0;
#X connect 99 0 95 3;
#X connect 100 0 93 0;
#X connect 101 0 95 5;
#X connect 102 0 94 0;
#X connect 103 0 95 7;
#X connect 104 0 88 0;
#X connect 105 0 104 1;
#X connect 106 0 89 0;
#X connect 107 0 90 0;
#X connect 108 0 91 0;
#X connect 109 0 95 0;
#X connect 110 0 22 1;
#X connect 110 0 122 1;
#X connect 110 0 133 1;
#X connect 110 0 144 1;
#X connect 110 0 166 1;
#X connect 111 0 110 1;
#X connect 111 0 109 0;
#X connect 112 0 106 1;
#X connect 113 0 107 1;
#X connect 114 0 108 1;
#X connect 115 0 34 0;
#X connect 116 0 119 0;
#X connect 117 0 35 0;
#X connect 118 0 120 0;
#X connect 119 0 115 1;
#X connect 120 0 117 1;
#X connect 121 0 70 0;
#X connect 122 0 123 0;
#X connect 123 0 126 0;
#X connect 123 0 127 0;
#X connect 123 1 125 0;
#X connect 123 1 128 0;
#X connect 123 1 129 0;
#X connect 124 0 132 0;
#X connect 124 0 54 1;
#X connect 125 0 132 1;
#X connect 125 0 54 2;
#X connect 126 0 124 0;
#X connect 127 0 130 0;
#X connect 128 0 125 0;
#X connect 129 0 131 0;
#X connect 130 0 126 1;
#X connect 131 0 128 1;
#X connect 132 0 70 0;
#X connect 133 0 134 0;
#X connect 134 0 137 0;
#X connect 134 0 138 0;
#X connect 134 1 136 0;
#X connect 134 1 139 0;
#X connect 134 1 140 0;
#X connect 135 0 143 0;
#X connect 135 0 63 1;
#X connect 136 0 143 1;
#X connect 136 0 63 2;
#X connect 137 0 135 0;
#X connect 138 0 141 0;
#X connect 139 0 136 0;
#X connect 140 0 142 0;
#X connect 141 0 137 1;
#X connect 142 0 139 1;
#X connect 143 0 70 0;
#X connect 144 0 145 0;
#X connect 145 0 148 0;
#X connect 145 0 149 0;
#X connect 145 1 147 0;
#X connect 145 1 150 0;
#X connect 145 1 151 0;
#X connect 146 0 154 0;
#X connect 146 0 28 1;
#X connect 147 0 154 1;
#X connect 147 0 28 2;
#X connect 148 0 146 0;
#X connect 149 0 152 0;
#X connect 150 0 147 0;
#X connect 151 0 153 0;
#X connect 152 0 148 1;
#X connect 153 0 150 1;
#X connect 154 0 70 0;
#X connect 156 0 157 0;
#X connect 156 0 166 0;
#X connect 157 0 158 0;
#X connect 157 0 164 0;
#X connect 158 0 163 0;
#X connect 160 0 161 0;
#X connect 161 0 159 0;
#X connect 161 0 165 0;
#X connect 162 0 160 0;
#X connect 163 0 162 0;
#X connect 164 0 162 1;
#X connect 165 0 158 0;
#X connect 166 0 167 0;
#X connect 167 0 170 0;
#X connect 167 0 171 0;
#X connect 167 1 169 0;
#X connect 167 1 172 0;
#X connect 167 1 173 0;
#X connect 168 0 176 0;
#X connect 168 0 160 1;
#X connect 169 0 176 1;
#X connect 169 0 160 2;
#X connect 170 0 168 0;
#X connect 171 0 174 0;
#X connect 172 0 169 0;
#X connect 173 0 175 0;
#X connect 174 0 170 1;
#X connect 175 0 172 1;
#X connect 176 0 70 0;
#X connect 178 0 156 1;
#X connect 179 0 24 1;
#X connect 180 0 40 1;
#X connect 181 0 50 1;
#X connect 182 0 59 1;
#X connect 183 0 176 2;
#X connect 184 0 154 2;
#X connect 185 0 121 2;
#X connect 186 0 132 2;
#X connect 187 0 143 2;
#X connect 188 0 189 0;
#X connect 189 0 190 0;
#X connect 190 0 70 1;
#X connect 191 0 84 1;
