#N canvas 0 22 1009 700 10;
#X declare -lib iemmatrix;
#X obj 151 16 inlet 4points;
#X obj 248 65 unpack f f f f f f f f;
#X obj 238 143 t b f;
#X obj 286 171 t b f;
#X obj 313 204 t b f;
#X obj 205 241 pack f f f f f f f f;
#X obj 40 110 inlet coordXY;
#X obj 26 324 outlet Mapped;
#X obj 221 326 outlet error;
#X obj 77 273 4points_calibration;
#X connect 0 0 1 0;
#X connect 1 0 5 0;
#X connect 1 1 5 1;
#X connect 1 2 2 0;
#X connect 1 3 5 3;
#X connect 1 4 3 0;
#X connect 1 5 5 5;
#X connect 1 6 4 0;
#X connect 1 7 5 7;
#X connect 2 0 5 0;
#X connect 2 1 5 2;
#X connect 3 0 5 0;
#X connect 3 1 5 4;
#X connect 4 0 5 0;
#X connect 4 1 5 6;
#X connect 5 0 9 1;
#X connect 6 0 9 0;
#X connect 9 0 7 0;
#X connect 9 1 8 0;
