#N canvas 0 22 1349 669 10;
#X declare -lib Gem;
#X declare -lib iemmatrix -lib 0.2;
#X obj 274 30 bng 15 250 50 0 empty empty empty 0 -6 0 8 -262144 -1
-1;
#X obj 21 13 TuioClient;
#X obj 11 70 route addObject removeObject updateObject;
#X obj 172 103 unpack \$1 \$2 \$3 \$4 \$5;
#X msg 21 126 \; pd dsp 1;
#X msg 101 126 \; pd dsp 0;
#X text 40 163 ON;
#X text 121 163 OFF;
#X obj -23 421 readsf~ 2 44100;
#X obj -24 462 dac~;
#X obj 24 365 bng 15 250 50 0 empty empty empty 17 7 0 10 -262144 -1
-1;
#X obj 25 393 tgl 15 0 empty empty empty 17 7 0 10 -262144 -1 -1 0
1;
#X msg -22 333 open sound/gamelle.wav;
#X obj 153 412 readsf~ 2 44100;
#X obj 151 455 dac~;
#X obj 179 358 bng 15 250 50 0 empty empty empty 17 7 0 10 -262144
-1 -1;
#X obj 181 385 tgl 15 0 empty empty empty 17 7 0 10 -262144 -1 -1 0
1;
#X obj 313 406 readsf~ 2 44100;
#X obj 308 452 dac~;
#X obj 376 358 bng 15 250 50 0 empty empty empty 17 7 0 10 -262144
-1 -1;
#X obj 377 386 tgl 15 0 empty empty empty 17 7 0 10 -262144 -1 -1 0
1;
#X obj 10 286 spigot;
#X floatatom 11 256 5 0 0 0 - - -;
#X floatatom -32 286 5 0 0 0 - - -;
#X floatatom 232 196 5 0 0 0 - - -;
#X obj 150 293 spigot;
#X floatatom 149 265 5 0 0 0 - - -;
#X floatatom 111 292 5 0 0 0 - - -;
#X obj 311 291 spigot;
#X floatatom 310 262 5 0 0 0 - - -;
#X floatatom 266 289 5 0 0 0 - - -;
#X msg 149 328 open sound/scratch.wav;
#X obj 220 365 delay 50;
#X msg 313 325 open sound/scratch2.wav;
#X obj 481 400 readsf~ 2 44100;
#X obj 474 446 dac~;
#X obj 527 351 bng 15 250 50 0 empty empty empty 17 7 0 10 -262144
-1 -1;
#X obj 527 375 tgl 15 0 empty empty empty 17 7 0 10 -262144 -1 -1 0
1;
#X obj 476 301 spigot;
#X floatatom 475 267 5 0 0 0 - - -;
#X floatatom 432 297 5 0 0 0 - - -;
#X obj 647 406 readsf~ 2 44100;
#X obj 648 441 dac~;
#X obj 697 356 bng 15 250 50 0 empty empty empty 17 7 0 10 -262144
-1 -1;
#X obj 698 381 tgl 15 0 empty empty empty 17 7 0 10 -262144 -1 -1 0
1;
#X obj 636 285 spigot;
#X floatatom 637 256 5 0 0 0 - - -;
#X floatatom 591 284 5 0 0 0 - - -;
#X msg 477 324 open sound/button.wav;
#X msg 640 311 open sound/action.wav;
#X obj 1317 25 gemwin_control;
#X obj 1318 69 import Gem;
#X obj -139 249 spigot;
#X obj -319 213 spigot;
#X obj -195 240 spigot;
#X obj -266 209 spigot;
#X obj 190 8 pack f f;
#X obj -345 299 unpack f f;
#X obj -290 268 unpack f f;
#X obj -222 301 unpack f f;
#X obj -147 300 unpack f f;
#X obj 146 238 == 9;
#X obj 309 235 == 10;
#X obj 474 236 == 11;
#X obj 635 226 == 12;
#X obj 56 626 spigot;
#X floatatom -329 517 5 0 0 0 - - -;
#X floatatom -271 517 5 0 0 0 - - -;
#X obj -329 472 unpack f f;
#X obj 102 464 ||;
#X obj -288 357 pack f f f f f f f f;
#X obj -325 428 homographie;
#X obj -168 497 bng 15 250 50 0 empty empty empty 17 7 0 10 -262144
-1 -1;
#X text -145 492 error;
#X obj 113 494 ||;
#X obj 118 526 ||;
#X obj 123 559 ||;
#X floatatom 115 588 5 0 0 0 - - -;
#X floatatom 515 932 5 0 0 0 - - -;
#X obj 424 567 gemhead;
#X obj 425 628 translateXYZ;
#X obj 425 684 rotateXYZ;
#X obj 432 752 translateXYZ;
#X obj 437 860 alpha;
#X floatatom 481 582 5 0 0 0 - - -;
#X floatatom 515 606 5 0 0 0 - - -;
#X floatatom 538 677 5 0 0 0 - - -;
#X floatatom 523 655 5 0 0 0 - - -;
#X floatatom 519 588 5 0 0 0 - - -;
#X floatatom 470 653 5 0 0 0 - - -;
#X floatatom 461 717 5 0 0 0 - - -;
#X floatatom 524 726 5 0 0 0 - - -;
#X floatatom 492 779 5 0 0 0 - - -;
#X floatatom 486 720 5 0 0 0 - - -;
#X floatatom 554 802 5 0 0 0 - - -;
#X floatatom 548 785 5 0 0 0 - - -;
#X floatatom 511 780 5 0 0 0 - - -;
#X msg 685 629 create \, 1;
#X msg 710 662 0 \, destroy;
#X msg 727 694 dimen 400 300;
#X msg 742 720 dimen 800 600;
#X msg 756 748 border 1;
#X msg 766 773 border 0;
#X obj 437 895 circle 0 0 2;
#X obj 717 834 gemwin;
#X obj 434 819 colorRGB 0 1 0;
#X obj -116 276 tgl 15 0 empty empty empty 17 7 0 10 -262144 -1 -1
0 1;
#X obj -186 267 tgl 15 0 empty empty empty 17 7 0 10 -262144 -1 -1
0 1;
#X obj -252 236 tgl 15 0 empty empty empty 17 7 0 10 -262144 -1 -1
0 1;
#X obj -306 242 tgl 15 0 empty empty empty 17 7 0 10 -262144 -1 -1
0 1;
#X obj -306 115 == 0;
#X obj -261 145 == 6;
#X obj -193 172 == 7;
#X obj -133 199 == 8;
#X obj 11 233 == 5;
#X connect 0 0 1 0;
#X connect 1 0 2 0;
#X connect 2 0 4 0;
#X connect 2 1 5 0;
#X connect 2 2 3 0;
#X connect 3 1 24 0;
#X connect 3 2 56 0;
#X connect 3 3 56 1;
#X connect 8 0 9 0;
#X connect 8 1 9 1;
#X connect 10 0 11 0;
#X connect 11 0 8 0;
#X connect 12 0 8 0;
#X connect 12 0 10 0;
#X connect 13 0 14 0;
#X connect 13 1 14 1;
#X connect 15 0 32 0;
#X connect 16 0 13 0;
#X connect 17 0 18 0;
#X connect 17 1 18 1;
#X connect 19 0 20 0;
#X connect 20 0 17 0;
#X connect 21 0 23 0;
#X connect 21 0 12 0;
#X connect 22 0 21 1;
#X connect 22 0 21 0;
#X connect 24 0 61 0;
#X connect 24 0 62 0;
#X connect 24 0 63 0;
#X connect 24 0 64 0;
#X connect 24 0 110 0;
#X connect 24 0 111 0;
#X connect 24 0 112 0;
#X connect 24 0 113 0;
#X connect 24 0 114 0;
#X connect 25 0 27 0;
#X connect 25 0 31 0;
#X connect 26 0 25 1;
#X connect 26 0 25 0;
#X connect 28 0 30 0;
#X connect 28 0 33 0;
#X connect 29 0 28 1;
#X connect 29 0 28 0;
#X connect 31 0 13 0;
#X connect 31 0 15 0;
#X connect 32 0 16 0;
#X connect 33 0 17 0;
#X connect 33 0 19 0;
#X connect 34 0 35 0;
#X connect 34 1 35 1;
#X connect 36 0 37 0;
#X connect 37 0 34 0;
#X connect 38 0 40 0;
#X connect 38 0 48 0;
#X connect 39 0 38 1;
#X connect 39 0 38 0;
#X connect 41 0 42 0;
#X connect 41 1 42 1;
#X connect 43 0 44 0;
#X connect 44 0 41 0;
#X connect 45 0 47 0;
#X connect 45 0 49 0;
#X connect 46 0 45 1;
#X connect 46 0 45 0;
#X connect 48 0 34 0;
#X connect 48 0 36 0;
#X connect 49 0 41 0;
#X connect 49 0 43 0;
#X connect 52 0 60 0;
#X connect 52 0 106 0;
#X connect 53 0 57 0;
#X connect 53 0 109 0;
#X connect 54 0 59 0;
#X connect 54 0 107 0;
#X connect 55 0 58 0;
#X connect 55 0 108 0;
#X connect 56 0 53 0;
#X connect 56 0 55 0;
#X connect 56 0 54 0;
#X connect 56 0 52 0;
#X connect 56 0 65 0;
#X connect 57 0 70 0;
#X connect 57 1 70 1;
#X connect 58 0 70 2;
#X connect 58 1 70 3;
#X connect 59 0 70 4;
#X connect 59 1 70 5;
#X connect 60 0 70 6;
#X connect 60 1 70 7;
#X connect 61 0 26 0;
#X connect 61 0 69 1;
#X connect 62 0 29 0;
#X connect 62 0 74 1;
#X connect 63 0 39 0;
#X connect 63 0 75 1;
#X connect 64 0 46 0;
#X connect 64 0 76 1;
#X connect 65 0 71 0;
#X connect 66 0 84 0;
#X connect 67 0 88 0;
#X connect 68 0 66 0;
#X connect 68 1 67 0;
#X connect 69 0 74 0;
#X connect 70 0 71 1;
#X connect 71 0 68 0;
#X connect 71 1 72 0;
#X connect 74 0 75 0;
#X connect 75 0 76 0;
#X connect 76 0 77 0;
#X connect 77 0 65 1;
#X connect 79 0 80 0;
#X connect 80 0 81 0;
#X connect 81 0 82 0;
#X connect 82 0 105 0;
#X connect 83 0 103 0;
#X connect 84 0 80 1;
#X connect 85 0 80 3;
#X connect 86 0 81 3;
#X connect 87 0 81 2;
#X connect 88 0 80 2;
#X connect 89 0 81 1;
#X connect 90 0 82 1;
#X connect 91 0 82 3;
#X connect 92 0 105 1;
#X connect 93 0 82 2;
#X connect 94 0 105 4;
#X connect 95 0 105 3;
#X connect 96 0 105 2;
#X connect 97 0 104 0;
#X connect 98 0 104 0;
#X connect 99 0 104 0;
#X connect 100 0 104 0;
#X connect 101 0 104 0;
#X connect 102 0 104 0;
#X connect 105 0 83 0;
#X connect 110 0 53 1;
#X connect 111 0 55 1;
#X connect 112 0 54 1;
#X connect 113 0 52 1;
#X connect 114 0 22 0;
#X connect 114 0 69 0;
